<?xml version="1.0" encoding="utf-8"?>
<!-- Generator: Adobe Illustrator 25.3.1, SVG Export Plug-In . SVG Version: 6.00 Build 0)  -->
<svg version="1.1" xmlns="http://www.w3.org/2000/svg" xmlns:xlink="http://www.w3.org/1999/xlink" x="0px" y="0px"
	 viewBox="0 0 750 500" style="enable-background:new 0 0 750 500;" xml:space="preserve">
<style type="text/css">
	.st0{fill:#D7E7FF;}
	.st1{clip-path:url(#SVGID_2_);}
	.st2{fill:#FFF0B0;}
	.st3{fill:#F5AEFF;}
	.st4{fill:#CFCFFF;}
	.st5{fill:none;stroke:#B2F9F2;stroke-width:17;stroke-linecap:round;stroke-miterlimit:10;}
	.st6{fill:none;stroke:#F5AEFF;stroke-width:17;stroke-linecap:round;stroke-linejoin:round;stroke-miterlimit:10;}
	.st7{fill:#B2F9F2;}
	.st8{fill:none;stroke:#E1FEFF;stroke-width:2;stroke-linejoin:round;stroke-miterlimit:10;}
	.st9{fill:none;stroke:#FFFFFF;stroke-width:2;stroke-linecap:round;stroke-linejoin:round;stroke-miterlimit:10;}
	.st10{fill:#A6B1FF;}
	.st11{fill:#FFFFFF;}
	.st12{fill:none;stroke:#FFFFFF;stroke-width:1.5;stroke-miterlimit:10;}
	.st13{fill:none;stroke:#B1B1E5;stroke-width:1.5;stroke-miterlimit:10;}
	.st14{fill:#84DCF4;}
	.st15{fill:#ED5454;}
	.st16{fill:#F2AD5A;}
	.st17{fill:#6471FB;}
	.st18{fill:none;stroke:#6471FB;stroke-width:4;stroke-miterlimit:10;}
	.st19{fill:#AD5C1F;}
	.st20{fill:#FFE98D;}
	.st21{fill:#E29B54;}
	.st22{fill:none;stroke:#FFFBD7;stroke-width:2;stroke-linecap:round;stroke-miterlimit:10;}
	.st23{clip-path:url(#SVGID_4_);}
	.st24{fill:#6D81E2;}
	.st25{fill:none;stroke:#3846AD;stroke-width:1.5;stroke-linejoin:round;stroke-miterlimit:10;}
	.st26{fill:#C66742;}
	.st27{fill:none;stroke:#893D1F;stroke-width:1.5;stroke-linejoin:round;stroke-miterlimit:10;}
	.st28{fill:none;stroke:#EDD496;stroke-width:1.5;stroke-linejoin:round;stroke-miterlimit:10;}
	.st29{fill:#2E3247;}
	.st30{fill:none;stroke:#181B28;stroke-width:1.5;stroke-linejoin:round;stroke-miterlimit:10;}
	.st31{fill:#141833;}
	.st32{fill:#A0B8F9;}
	.st33{fill:#80A2ED;}
	.st34{fill:url(#SVGID_5_);}
	.st35{fill:#FFB399;}
	.st36{fill:#484E99;}
	.st37{fill:none;stroke:#302E70;stroke-width:1.5;stroke-linejoin:round;stroke-miterlimit:10;}
	.st38{fill:url(#SVGID_6_);}
	.st39{fill:none;stroke:#D16A59;stroke-width:1.5;stroke-linejoin:round;stroke-miterlimit:10;}
	.st40{fill:none;stroke:#697FED;stroke-width:1.5;stroke-linejoin:round;stroke-miterlimit:10;}
	.st41{fill:#EF937B;}
	.st42{fill:#2B1A1A;}
	.st43{fill:none;stroke:#6471FB;stroke-width:2;stroke-miterlimit:10;}
	.st44{fill:none;stroke:#4F3636;stroke-width:1.5;stroke-miterlimit:10;}
	.st45{fill:#FFC799;}
	.st46{fill:none;stroke:#D37E53;stroke-width:1.5;stroke-linejoin:round;stroke-miterlimit:10;}
	.st47{fill:#70D1E8;}
	.st48{fill:none;stroke:#36A1BA;stroke-width:1.5;stroke-linejoin:round;stroke-miterlimit:10;}
	.st49{fill:none;stroke:#EABD7D;stroke-width:1.5;stroke-linejoin:round;stroke-miterlimit:10;}
	.st50{fill:none;stroke:#FFE98D;stroke-width:3;stroke-miterlimit:10;}
	.st51{fill:#5C6587;}
	.st52{fill:none;stroke:#A0371F;stroke-width:1.5;stroke-miterlimit:10;}
	.st53{fill:#A0371F;}
	.st54{fill:none;stroke:#602015;stroke-width:1.5;stroke-miterlimit:10;}
	.st55{fill:none;stroke:#CC6242;stroke-width:1.5;stroke-linejoin:round;stroke-miterlimit:10;}
	.st56{fill:none;stroke:#D1B25A;stroke-width:1.5;stroke-linejoin:round;stroke-miterlimit:10;}
	.st57{fill:#B27C4B;}
	.st58{fill:none;stroke:#8E5D35;stroke-width:1.5;stroke-miterlimit:10;}
	.st59{fill:#8E5D35;}
	.st60{fill:#683A23;}
	.st61{fill:none;stroke:#542C1E;stroke-width:1.5;stroke-linejoin:round;stroke-miterlimit:10;}
	.st62{fill:#AF9866;}
	.st63{fill:none;stroke:#84773E;stroke-width:1.5;stroke-linejoin:round;stroke-miterlimit:10;}
	.st64{fill:#84773E;}
	.st65{fill:#A55D47;}
	.st66{fill:#EDAC7C;}
	.st67{fill:#702218;}
	.st68{clip-path:url(#SVGID_8_);}
	.st69{fill:#B53524;}
	.st70{fill:none;stroke:#82412A;stroke-width:1.5;stroke-linejoin:round;stroke-miterlimit:10;}
	.st71{fill:#FF9797;}
	.st72{fill:none;stroke:#D35F5F;stroke-width:1.5;stroke-linejoin:round;stroke-miterlimit:10;}
	.st73{fill:none;stroke:#752315;stroke-width:1.5;stroke-miterlimit:10;}
	.st74{fill:#CC4C25;}
	.st75{fill:#EF8B8B;}
	.st76{fill:none;stroke:#3A1F13;stroke-width:1.5;stroke-miterlimit:10;}
	.st77{fill:#F46F40;}
	.st78{fill:#3A2117;}
	.st79{fill:none;stroke:#CC4C25;stroke-width:1.5;stroke-linejoin:round;stroke-miterlimit:10;}
	.st80{clip-path:url(#SVGID_10_);}
	.st81{fill:#B2BBF9;}
	.st82{fill:#3846AD;}
	.st83{fill:#BAD0F7;}
	.st84{fill:none;stroke:#7187D8;stroke-width:2;stroke-linejoin:round;stroke-miterlimit:10;}
</style>
<g id="BACKGROUND">
	<rect class="st0" width="750" height="500"/>
</g>
<g id="OBJECTS">
	<g>
		<defs>
			<rect id="SVGID_1_" width="750" height="500"/>
		</defs>
		<clipPath id="SVGID_2_">
			<use xlink:href="#SVGID_1_"  style="overflow:visible;"/>
		</clipPath>
		<g class="st1">
			<path class="st2" d="M737.9,82.68c-5.84,5.44-11.19,11.39-15.9,17.57c-8.63,11.32-22.42,35.02-4.88,45.09
				c14.69,8.43,31.5-5.37,41.02-15.62c12.62-13.59,21.78-31.23,28.08-48.51c6.92-19-12.23-22.74-25.61-15.26
				C752.5,70.47,744.85,76.21,737.9,82.68z"/>
			<path class="st3" d="M177.19-16.77c-13.47,12.44-28.21,44.78-8.67,59.08c19.42,14.21,41.07-9.81,51.91-23.87
				c6.74-8.74,14.19-18.46,16.96-29.32c3.44-13.49-9.59-20.47-21.99-20.97C201.48-32.4,187.62-26.41,177.19-16.77z"/>
			<path class="st2" d="M14.06,247.24c2.66,2.47,5.25,4.88,7.79,7.22c31.64,29.17,120.74,130.56,57.85,169.18
				c-41.27,25.35-90.51-12.68-118.61-41.17c-37.26-37.78-64.95-87.45-84.43-136.36c-10.84-27.22-10.88-72.89,30.29-66.89
				C-53.18,185.03-15.82,219.48,14.06,247.24z"/>
			<path class="st4" d="M792.73,342c3.17,1.76,6.27,3.49,9.29,5.15c37.69,20.78,148.41,97.97,96.56,150.49
				c-34.03,34.46-90.92,9.29-125.01-11.67c-45.2-27.8-83.95-69.42-114.53-112.27c-17.03-23.85-27.96-68.19,13.45-72.18
				C712.58,297.65,757.09,322.18,792.73,342z"/>
			<path class="st5" d="M99.57,476.51c-11.14-4.16-20.27-13.79-32.1-14.95c-16.58-1.63-21.32,14.69-37.59,4.75
				c-8.85-5.4-19.06-15.88-28.46-5.15c-3.77,4.31-6.77,9.79-13.76,9.6c-4.74-0.12-8.96-2.36-12.7-4.78
				c-8-5.17-30.25-18.94-36.09-4.23"/>
			<path class="st6" d="M116.66,113.21c3.92-5.38,7.38-11.07,9.91-17.28c4.79-11.76,5.42-25.93-0.33-37.63
				c-5.74-11.67-16.15-18.88-16.01-33.25c0.15-14.36,13.24-25.69,18.82-38.01c6.1-13.49,6.18-28.85-5.79-38.68
				c-6.85-5.62-15.56-10.09-15.27-20.51c0.2-7.06,3.76-13.35,7.6-18.93c8.22-11.92,30.11-45.09,6.72-53.78"/>
			<g>
				<path class="st4" d="M-39.96,76.01H0c0,30.66,24.95,55.61,55.61,55.61s55.61-24.95,55.61-55.61h39.96
					c0,52.7-42.87,95.57-95.57,95.57C2.91,171.58-39.96,128.7-39.96,76.01z"/>
			</g>
			<g>
				<path class="st7" d="M672.02-63.5v33c-25.32,0-45.93,20.6-45.93,45.93c0,25.32,20.6,45.93,45.93,45.93v33
					c-43.52,0-78.93-35.41-78.93-78.93C593.09-28.1,628.5-63.5,672.02-63.5z"/>
			</g>
			
				<ellipse transform="matrix(0.1596 -0.9872 0.9872 0.1596 447.6698 687.8476)" class="st4" cx="627.84" cy="80.99" rx="11.21" ry="11.21"/>
			<circle class="st7" cx="720.54" cy="230.98" r="8.27"/>
			<circle class="st3" cx="667.64" cy="47.07" r="21.52"/>
			<polyline class="st8" points="690.49,142.56 696.5,148.57 690.49,154.58 696.5,160.59 690.49,166.6 696.5,172.61 690.49,178.62 
				696.5,184.63 690.49,190.64 			"/>
			<polyline class="st8" points="22.74,52.4 30.73,44.41 38.72,52.4 46.7,44.41 54.69,52.4 62.67,44.41 70.66,52.4 78.64,44.41 
				86.63,52.4 			"/>
			
				<ellipse transform="matrix(0.2298 -0.9732 0.9732 0.2298 -26.457 140.8392)" class="st7" cx="75.75" cy="87.13" rx="15.15" ry="15.15"/>
		</g>
	</g>
	<g>
		<line class="st9" x1="535.95" y1="65.22" x2="396.15" y2="171.55"/>
		<polygon class="st9" points="442.27,38.74 287.26,62.02 192.86,121.94 396.15,171.55 581.75,153.63 535.95,65.22 		"/>
		<polyline class="st9" points="287.26,62.02 396.15,171.55 442.27,38.74 		"/>
		<line class="st9" x1="442.27" y1="34.35" x2="581.75" y2="150.59"/>
		<g>
			<path class="st10" d="M419.36,217.34h-63.35c-4.97,0-9-4.03-9-9v-63.35c0-4.97,4.03-9,9-9h63.35c4.97,0,9,4.03,9,9v63.35
				C428.35,213.31,424.33,217.34,419.36,217.34z"/>
			<g>
				<path class="st11" d="M386.32,205.33h-9.63c-1.66,0-3.01-1.35-3.01-3.01v-26.26h15.65v26.26
					C389.33,203.98,387.98,205.33,386.32,205.33z"/>
				<path class="st4" d="M378.82,180.28c7.25,0,18.68,6.22,25.12,14.17c0.75,0.93,2.18,0.84,2.8-0.18
					c8.81-14.51,9.18-29.62-0.02-45.42c-0.6-1.04-2.05-1.14-2.81-0.2c-6.45,7.93-17.85,14.13-25.08,14.13"/>
				<path class="st12" d="M403.35,194.26c8.81-14.51,9.18-29.62-0.02-45.42"/>
				<path class="st11" d="M384.13,181.41h-18.44c-2.1,0-3.8-1.7-3.8-3.8v-12.16c0-2.1,1.7-3.8,3.8-3.8h18.44V181.41z"/>
				<line class="st13" x1="373.68" y1="181.41" x2="384.13" y2="181.41"/>
			</g>
		</g>
		<g>
			<path class="st14" d="M313.08,96.84h-51.64c-4.97,0-9-4.03-9-9V36.2c0-4.97,4.03-9,9-9h51.64c4.97,0,9,4.03,9,9v51.64
				C322.08,92.81,318.05,96.84,313.08,96.84z"/>
			<path class="st11" d="M307.94,60.46l-17.56-13.99c-0.55-0.44-1.37-0.05-1.37,0.66v7.1c-11.37,1.66-20.29,10.66-22.95,23.53
				c5.72-7.08,13.46-10.86,22.95-10.56V76c0,0.71,0.82,1.1,1.37,0.66l17.56-13.99C308.65,62.11,308.65,61.03,307.94,60.46z"/>
		</g>
		<g>
			<path class="st11" d="M211.42,149.5h-37.13c-4.97,0-9-4.03-9-9v-37.13c0-4.97,4.03-9,9-9h37.13c4.97,0,9,4.03,9,9v37.13
				C220.42,145.47,216.39,149.5,211.42,149.5z"/>
			<path class="st15" d="M208.78,115.15c-0.6-3.15-3.13-5.69-6.27-6.3c-3.82-0.74-7.29,1.23-8.82,4.32c-0.34,0.7-1.31,0.7-1.66,0
				c-1.53-3.1-5-5.07-8.82-4.32c-3.15,0.61-5.68,3.15-6.27,6.3c-0.54,2.83,0.41,5.47,2.2,7.26l12.08,12.08
				c0.91,0.91,2.37,0.91,3.28,0l12.08-12.08C208.37,120.63,209.32,117.99,208.78,115.15z"/>
		</g>
		<g>
			<path class="st16" d="M455.06,59h-25.59c-4.97,0-9-4.03-9-9V24.42c0-4.97,4.03-9,9-9h25.59c4.97,0,9,4.03,9,9v25.59
				C464.06,54.98,460.03,59,455.06,59z"/>
			<g>
				<path class="st11" d="M453.22,33.81c-1.27,0-2.41,0.51-3.24,1.34c0.18-0.64,0.28-1.31,0.28-2.01c0-4.1-3.32-7.42-7.42-7.42
					c-4.1,0-7.42,3.32-7.42,7.42c0,0.23,0.01,0.46,0.03,0.69c-0.93-0.83-2.15-1.33-3.49-1.33c-2.9,0-5.24,2.35-5.24,5.24
					s2.35,5.24,5.24,5.24c2.82,0,18.72,0,21.26,0c2.53,0,4.59-2.05,4.59-4.59C457.81,35.86,455.76,33.81,453.22,33.81z"/>
				<g>
					<path class="st17" d="M445.01,34.57l-4.47,5.6c-0.3,0.38-0.03,0.94,0.45,0.94h8.94c0.49,0,0.76-0.56,0.45-0.94l-4.47-5.6
						C445.68,34.28,445.24,34.28,445.01,34.57z"/>
					<path class="st17" d="M447.02,47.07h-3.12c-0.53,0-0.95-0.43-0.95-0.95V40.4c0-0.53,0.43-0.95,0.95-0.95h3.12
						c0.53,0,0.95,0.43,0.95,0.95v5.72C447.98,46.65,447.55,47.07,447.02,47.07z"/>
				</g>
			</g>
		</g>
		<g>
			<path class="st11" d="M604.44,185.33h-45.4c-4.97,0-9-4.03-9-9v-45.4c0-4.97,4.03-9,9-9h45.4c4.97,0,9,4.03,9,9v45.4
				C613.44,181.3,609.41,185.33,604.44,185.33z"/>
			<g>
				<circle class="st18" cx="581.75" cy="153.63" r="19.98"/>
				<circle class="st18" cx="581.75" cy="153.63" r="10.53"/>
				<path class="st17" d="M584.79,153.63c0,1.68-1.36,3.05-3.05,3.05s-3.05-1.36-3.05-3.05s1.36-3.05,3.05-3.05
					S584.79,151.95,584.79,153.63z"/>
			</g>
		</g>
		<g>
			<path class="st11" d="M551.98,89.41h-32.05c-4.97,0-9-4.03-9-9V48.36c0-4.97,4.03-9,9-9h32.05c4.97,0,9,4.03,9,9v32.05
				C560.98,85.38,556.95,89.41,551.98,89.41z"/>
			<g>
				<path class="st19" d="M550.87,74.82h-29.83c-1.1,0-1.99-0.89-1.99-1.99V57.6c0-1.1,0.89-1.99,1.99-1.99h29.83
					c1.1,0,1.99,0.89,1.99,1.99v15.24C552.85,73.93,551.97,74.82,550.87,74.82z"/>
				<rect x="523.89" y="51.94" class="st20" width="6.61" height="3.67"/>
				<path class="st20" d="M550.31,58.97c0,0.61-0.5,1.11-1.11,1.11c-0.61,0-1.11-0.5-1.11-1.11c0-0.61,0.5-1.11,1.11-1.11
					C549.81,57.86,550.31,58.36,550.31,58.97z"/>
				
					<ellipse transform="matrix(0.2504 -0.9681 0.9681 0.2504 338.6263 567.7719)" class="st21" cx="535.95" cy="65.22" rx="11.62" ry="11.62"/>
				
					<ellipse transform="matrix(0.2507 -0.9681 0.9681 0.2507 338.4424 567.6996)" class="st20" cx="535.95" cy="65.22" rx="8.54" ry="8.54"/>
				<path class="st22" d="M536.64,59.43c1.3,0.22,2.52,0.88,3.43,1.83c0.91,0.96,1.49,2.21,1.64,3.52"/>
			</g>
		</g>
	</g>
	<g>
		<defs>
			<rect id="SVGID_3_" width="750" height="500"/>
		</defs>
		<clipPath id="SVGID_4_">
			<use xlink:href="#SVGID_3_"  style="overflow:visible;"/>
		</clipPath>
		<g class="st23">
			<g>
				<g>
					<path class="st24" d="M694.9,427.98c-1.56-9.67-1.93-18.83-1.68-28.64l-97.01,3.71c-4.53,7.7-7.72,16.28-9.37,25.19
						c-1.25,6.77-1.61,13.68-1.93,20.57c-1.27,27.73-1.86,55.49-1.77,83.25c0.23,0,0.42-0.73,0.65-0.73h58.75l2.22-60.22
						c4.56,21.15,8.75,42.37,13.31,63.53c0.57,0,1.31-0.77,1.88-0.77h60.86C716.66,510.15,696.87,440.18,694.9,427.98z"/>
					<polyline class="st25" points="644.76,471.12 645.49,448.4 650.34,437.82 					"/>
					<path class="st25" d="M663.46,423.33c1.12,10.73,3.86,21.3,8.08,31.23c1.68,0.84,3.73,0.43,5.6,0.56
						c6.92,0.47,13.88,0.42,20.79-0.15"/>
					<path class="st25" d="M690.44,428.11c4.1,15.47,7.96,31.01,11.59,46.6c2.74,11.78,5.34,23.61,8.87,35.18
						c2.49,8.17,5.45,16.33,5.87,24.85"/>
					<path class="st25" d="M594.55,425.06c-5.63,9.02-4.2,21.63-4.52,31.79c-0.79,25.24-4.3,50.26-4.12,75.52"/>
					<path class="st25" d="M590.27,458.91c8.57,0.58,17.22-0.1,25.59-2.02c1.76-10.64,2.99-21.23,3.86-31.98"/>
				</g>
				<g>
					<path class="st11" d="M705.78,305.46l-23.96-17.01c-17.65-1.49-35.43-9.56-52.14-3.71c-15.08,5.27-28.39,14.55-40.93,24.46
						c-0.01,14.38-0.28,28.5-0.36,42.93c-0.06,10.6-0.85,21.17-1.48,31.75c-0.57,9.4-3.55,18.06-5.72,27.27
						c-0.84,3.6-1.69,7.25-1.46,10.94c0.24,3.69,1.72,7.47,4.72,9.62c4.41,3.17,10.46,2,15.73,0.7c12.01-2.97,24.03-5.93,36.04-8.9
						c2.44-0.6,4.9-1.21,7.41-1.18c2.51,0.02,4.97,0.67,7.4,1.29c12.61,3.18,25.45,5.46,38.39,6.83c3.81,0.4,8.06,0.6,11.03-1.83
						c2.98-2.44,3.61-6.69,3.81-10.54c0.46-8.99-1.01-17.66-0.85-26.6c0.17-9.62-0.19-19.24-0.5-28.86
						C702.26,343.56,701.74,324.23,705.78,305.46z"/>
					<g>
						<path class="st26" d="M572.83,354.72c-0.63,16.19-1.25,32.44,0.38,48.56c0.35,3.47,0.84,7.02,2.5,10.09
							c2.96,5.46,9.26,8.46,15.45,8.94c6.19,0.48,12.33-1.19,18.23-3.1c22.85-7.4,44.27-18.59,65.55-29.72
							c-1.64-10.89-3.69-21.15-6.77-31.73c-18.28,6.56-49.85,13.15-49.85,13.15L618,347.22"/>
						<path class="st27" d="M618.89,370.52c-4.68,1.29-9.37,2.59-14.05,3.88c-6.8,1.88-14.15,4.13-18.22,9.9"/>
						<path class="st26" d="M676.83,390.93c2.73,1.1,5.73,1.52,8.66,1.22c4.19-0.44,8.29-2.33,12.46-1.76
							c5.16,0.7,9.18,4.97,14.23,6.21c1.33-2.72,0.17-5.98-1.32-8.62c-1.49-2.64-3.35-5.28-3.44-8.3c-0.05-1.6,0.41-3.27-0.19-4.75
							c-0.22-0.55-0.58-1.05-0.73-1.63c-0.31-1.19,0.31-2.4,0.54-3.61c0.57-3.09-1.46-6-3.39-8.49c-0.75-0.97-1.53-1.97-2.58-2.61
							c-1.05-0.64-2.29-0.88-3.5-1.09c-6.06-1.06-24.23-0.93-27.01-0.39c-9.62,1.86-18.82,6.37-28.63,10.49"/>
						<path class="st27" d="M674.73,389.8c-1.93-0.86-4.09-1.2-6.19-0.96"/>
						<path class="st27" d="M708.31,383.97c-2.87-1.91-6.13-3.23-9.52-3.86"/>
						<path class="st27" d="M706.53,374.18c-2.61-1.67-5.64-2.68-8.74-2.92"/>
						<path class="st27" d="M707,368.37c-1.52-2.4-4.09-4-6.82-4.79c-2.73-0.79-5.61-0.85-8.45-0.68"/>
					</g>
					<path class="st11" d="M630.26,284.77c-13.96,1.35-34.45,2.17-46.84,9.27c-3.81,2.18-8.03,5.51-10.74,8.97
						c-8.01,10.22-9.6,58.85-9.6,58.85c11.16,5.02,37.75,7.92,57.84,3.2c-0.76-16.39-4.52-49.28-4.52-49.28"/>
					<path class="st28" d="M620.92,365.06c-0.76-16.39-4.52-49.28-4.52-49.28"/>
					<path class="st26" d="M688.46,359.66c1.6,9.51,3.9,18.91,6.86,28.1c1.24,3.85,2.61,7.69,4.77,11.11
						c2.15,3.42,5.16,6.42,8.91,7.92c4.04,1.62,8.71,1.36,12.72-0.32c4.01-1.68,7.38-4.7,9.86-8.28c0.96-1.39,1.8-2.88,2.32-4.49
						c0.72-2.23,0.82-4.61,0.78-6.95c-0.08-5.14-0.74-10.24-1.41-15.34c-1.04-7.97-2.08-15.93-3.11-23.9"/>
					<path class="st11" d="M660.85,283.68c9.61,0.64,19.18,1.79,28.65,3.45c5.09,0.89,10.23,1.96,14.77,4.27
						c11.03,5.62,16.47,17.38,20.22,28.52c3.99,11.85,6.96,23.98,9.93,36.09c-15.94,4.57-32.45,8.95-48.57,5.06
						c-0.93-11.23-3.44-24.4-4.37-35.64"/>
					<path class="st28" d="M685.34,352.03c16.36,0,31.29-1.81,46.03-5.92"/>
					<path class="st28" d="M622,293.24c3.39,2.75,7.12,5.11,11.25,6.8c6.14,2.51,13.22,3.4,19.68,1.68
						c6.46-1.72,12.14-6.26,14.07-12.16"/>
					<path class="st28" d="M682.71,318.28c1.04,13.36,2.09,26.73,3.13,40.09"/>
					<path class="st28" d="M563.96,351c18.41,4.4,37.56,5.72,56.4,3.87"/>
					<path class="st28" d="M642.07,421.77c11.82-2.3,23.93-3.05,35.94-2.22"/>
				</g>
				<g>
					<path class="st29" d="M664.76,253.49c-0.24,4.87-1.45,9.62-2.24,14.43c-0.78,4.81-1.12,9.83,0.35,14.47
						c0.3,0.94,0.68,1.88,1.36,2.6c1.45,1.54,4.03,1.65,5.86,0.58c1.83-1.07,2.94-3.1,3.36-5.18c0.42-2.08,0.22-4.23-0.07-6.33
						c-0.84-6.19-2.42-12.4-1.58-18.59"/>
					<path class="st26" d="M661.16,260.59l-34.43,8.75c0.61,6.11,0.39,12.32-0.64,18.36c5.53,4.91,12.9,8.06,19.98,7.52
						c7.09-0.54,13.95-4.11,18.81-9.81C662.48,277.4,660.66,269,661.16,260.59z"/>
					<path class="st26" d="M617.3,246.58c0.44,5.37,1.21,10.77,3.14,15.79c1.93,5.03,5.12,9.7,9.62,12.65
						c4.19,2.74,9.28,3.85,14.28,3.95c1.82,0.03,3.64-0.06,5.42-0.45c6.58-1.46,11.72-6.94,14.31-13.15
						c2.59-6.22,2.99-13.11,2.92-19.85c-0.04-3.85-0.23-7.69-0.55-11.53c-0.67-7.88-2.38-16.47-8.57-21.38
						c-2.39-1.9-5.28-3.07-8.22-3.9c-7.64-2.17-19.9-1.98-25.75,4.42C616.15,221.59,616.42,235.93,617.3,246.58z"/>
					<path class="st27" d="M630.08,274.42c3.53,2.6,7.52,5.06,11.98,5.55c6.64,0.73,13.19-3.7,17.02-8.81"/>
					<path class="st29" d="M660.31,196.28c-0.14-0.07-0.28-0.14-0.43-0.21c-3.17-1.51-6.85-1.91-10.27-1.12
						c-2.59,0.6-5.04,1.88-7.68,2.24c-3.08,0.42-4.16-1.19-6.91-1.77c-2.56-0.55-5.23-0.6-7.8-0.11c-4.23,0.8-8.3,3.14-10.53,6.82
						c-0.57,0.93-1.01,1.94-1.66,2.81c-1.29,1.74-3.34,2.47-4.78,3.96c-1.57,1.62-2.72,4.12-3.67,6.14c-2,4.28-3.16,8.95-3.57,13.65
						c-0.69,7.82-0.04,16.04-3.3,23.19c-2.44,5.34-7.03,9.66-12.52,11.77c-1.25,0.48-2.66,0.93-3.37,2.07
						c-1.44,2.32,1.15,5.14,3.71,6.08c3.28,1.2,7,1.19,10.27-0.03c-2.03,3.69-5.17,6.75-8.9,8.71c-1.35,0.71-2.91,1.42-3.41,2.86
						c-0.49,1.39,0.31,2.99,1.52,3.83c1.21,0.84,2.75,1.06,4.22,1.1c5.56,0.14,11.15-2.1,15.07-6.04
						c-2.56,7.32-2.35,15.57,0.58,22.76c0.95,2.33,2.24,4.63,4.3,6.1c2.05,1.47,5,1.9,7.08,0.48c2.84-1.93,2.87-6.04,2.59-9.46
						c-0.48-5.97-0.97-11.94-1.45-17.91c0.36,4.7,5.45,8.44,10.04,7.37c0.89-0.21,1.79-0.59,2.36-1.31
						c0.46-0.57,0.66-1.29,0.81-2.01c1.48-7.07-1.96-14.1-4.3-20.93c-2.93-8.55-4.22-17.59-4.72-26.61
						c-0.5-8.81,0.08-18.54,6.12-24.97c1.16-1.24,2.7-2.38,4.39-2.22c2.16,0.21,3.52,2.36,5.32,3.57c2.17,1.47,5.22,1.49,7.42,0.06
						c1.04-0.68,1.92-1.66,3.09-2.07c2.97-1.05,5.76,1.93,7.26,4.7c1.66,3.07,2.95,6.32,3.91,9.67c0.9,3.12,0.86,6.35,1.23,9.58
						c0.87,7.5,1.33,15.2-0.41,22.62c-0.91,3.87-2.41,7.69-2.26,11.66c0.08,2.11,0.74,4.37,2.45,5.61c1.71,1.24,4.6,0.87,5.39-1.09
						c-1.13,6.92,0.74,14.27,5.03,19.81c1.44,1.85,3.3,3.6,5.62,3.95c2.32,0.35,5.02-1.32,4.97-3.67c1.28,1.09,2.64,2.23,4.29,2.55
						c3.61,0.71,5.61-2.58,4.36-5.58c-1.1-2.62-4.51-5.3-3.38-8.44c1.41,2.39,5.49,1.68,6.82-0.76c1.33-2.44,0.5-5.54-1.02-7.85
						c-1.53-2.32-3.67-4.16-5.31-6.4c-3.14-4.28-4.21-9.68-5.21-14.89c0.87,1.93,2.92,3.25,5.03,3.26c2.11,0,4.17-1.32,5.05-3.24
						c1.23-2.68,0.12-5.91-1.69-8.25c-1.8-2.34-4.23-4.12-6.16-6.35c-9.78-11.33-4.91-29.2-16.59-38.91
						c-0.99-0.83-1.99-1.66-2.98-2.48C664.43,199,662.51,197.41,660.31,196.28z"/>
					<path class="st29" d="M629.13,229.67c-1.54,0.3-3.84,1.93-2.54,3.65c1.16,1.54,3.01,0.18,4.5,0.32
						c0.94,0.08,2.81,1.38,3.67,0.86c1.08-0.65,0.53-2.69-0.18-3.35c-1.27-1.17-2.75-1.51-4.41-1.56
						C629.82,229.57,629.47,229.6,629.13,229.67z"/>
					<path class="st27" d="M640.7,242.75c0.25,1.05,0.05,2.21-0.56,3.11c-0.39,0.58-0.93,1.05-1.25,1.66
						c-0.55,1.05-0.35,2.4,0.32,3.39c0.67,0.99,1.74,1.64,2.86,2.03"/>
					<path class="st27" d="M638.66,258.95c3.78,1.69,8.65,0.38,11.07-2.97"/>
					<path class="st30" d="M663.51,279.88c1.78,0.45,3.59-0.96,4.32-2.64c0.73-1.69,0.69-3.59,0.8-5.42
						c0.5-8.01,2.81-15.77,3.65-23.73c0.87-8.22-0.56-16.19-2.54-24.16c-1.33-5.35-2.28-10.98-6.19-15.11"/>
					<path class="st30" d="M643.55,209.04c3.53-2.92,8.43-4.1,12.9-3.12"/>
					<path class="st30" d="M634.32,205.69c1.78,0.15,3.62-0.28,5.34,0.22c0.9,0.26,1.71,0.76,2.47,1.31
						c1.44,1.04,2.77,2.32,3.51,3.94"/>
					<path class="st30" d="M619.43,216.96c-4.13,5.72-5.5,12.97-6.06,20.01c-0.66,8.26-0.33,16.6,0.94,24.79
						c1.26,8.12,4.47,15.78,5.25,23.95"/>
					<path class="st30" d="M605.61,283.12c-0.22-3.74,0.78-7.43,1.27-11.15c0.45-3.43,0.48-6.89,0.41-10.35
						c-0.27-13.15-1.86-26.75,2.63-39.12"/>
					<path class="st30" d="M596.92,272.45c4.8-5.95,7.66-13.44,8.05-21.08"/>
					<path class="st30" d="M688.92,289.89c-5.57-8.66-8.96-19.34-9.73-29.61c-0.7-9.39-0.34-18.75-0.86-28.15"/>
					<path class="st30" d="M683.74,258.41c-1.64-5.49-2.42-11.22-2.32-16.95"/>
					<path class="st30" d="M614.05,206.42c1.73-1.9,4.12-3.04,6.45-4.13c3.69-1.73,7.47-3.49,11.53-3.83
						c4.33-0.36,8.74,0.98,12.29,3.48"/>
					<path class="st31" d="M628.77,241.27c-0.06,0.9-0.02,1.94,0.27,2.59c0.33,0.74,0.95,1.03,1.55,1.09
						c0.44,0.04,1.11-0.09,1.47-0.47c0.56-0.58,0.74-1.66,0.81-2.83c0.07-1.06-0.03-2.23-0.43-2.91c-0.32-0.56-0.88-0.72-1.39-0.77
						c-0.56-0.05-1.21,0.07-1.62,0.66C629.01,239.23,628.83,240.3,628.77,241.27z"/>
					<path class="st29" d="M655.71,229.67c0.98,0.19,2.31,0.52,2.88,1.4c0.42,0.65,0.48,1.5,0.16,2.2c-0.09,0.2-0.22,0.39-0.4,0.51
						c-0.2,0.12-0.45,0.15-0.68,0.16c-0.74,0.05-1.48,0.07-2.22,0.06c-0.43-0.01-0.86-0.02-1.28,0.07c-0.45,0.1-0.86,0.32-1.3,0.45
						c-1,0.29-2.6,0.46-3.14-0.57c-0.47-0.89-0.18-2.14,0.54-2.81c1.27-1.17,2.75-1.51,4.41-1.56
						C655.02,229.57,655.37,229.6,655.71,229.67z"/>
					<path class="st31" d="M656.07,241.27c0.06,0.9,0.02,1.94-0.27,2.59c-0.33,0.74-0.95,1.03-1.55,1.09
						c-0.44,0.04-1.11-0.09-1.47-0.47c-0.56-0.58-0.74-1.66-0.81-2.83c-0.07-1.06,0.03-2.23,0.43-2.91
						c0.32-0.56,0.88-0.72,1.39-0.77c0.56-0.05,1.21,0.07,1.62,0.66C655.83,239.23,656.01,240.3,656.07,241.27z"/>
					<path class="st30" d="M674.7,260.71c0.06,7.22,0.96,14.43,2.68,21.44c0.56,2.29,1.21,4.56,2.06,6.77
						c1.27,3.31,3.01,6.54,3.23,10.08"/>
					<path class="st30" d="M667.5,278.1c-0.18,3.1-0.36,6.28,0.6,9.22"/>
				</g>
				<g>
					<path class="st26" d="M729.44,381.72c-5.55-14.7-12.85-32.7-20.76-46.28c2.06-7.65,2.73-15.67,1.94-23.56
						c-0.29-2.89-0.79-5.84-2.24-8.37c-3.01-5.25-9.6-7.58-15.64-7.22c-6.04,0.36-11.7,2.92-17.2,5.44
						c-1.85,0.85-3.78,1.76-4.99,3.39c-1.41,1.91-1.58,4.45-1.57,6.82c0.03,11.77,2.74,17.37,9.64,26.9
						c4.96,25.44,7.24,48,17.25,63.58c2.9,4.51,7.28,7.23,12.29,9.14c7.72,2.95,18.69-0.7,22.76-7.9c5.38-9.52,3.6-16.16,1.02-26.13
						"/>
					<g>
						<path class="st29" d="M704.39,324.95l-24.9,2.33c-1.59,0.15-3-1.02-3.15-2.61l-4.4-47.11c-0.15-1.59,1.02-3,2.61-3.15
							l24.9-2.33c1.59-0.15,3,1.02,3.15,2.61l4.4,47.11C707.15,323.39,705.98,324.8,704.39,324.95z"/>
						<path class="st32" d="M678.21,324.61l-4.43-47.36c-0.05-0.49,0.32-0.93,0.81-0.98l25.15-2.35c0.49-0.05,0.93,0.32,0.98,0.81
							l4.43,47.36c0.05,0.49-0.32,0.93-0.81,0.98l-25.15,2.35C678.69,325.47,678.26,325.11,678.21,324.61z"/>
						<path class="st33" d="M698.3,289.91l-19.34,1.81c-0.84,0.08-1.58-0.54-1.66-1.37l-0.95-10.17c-0.08-0.84,0.54-1.58,1.37-1.66
							l19.34-1.81c0.84-0.08,1.58,0.54,1.66,1.37l0.95,10.17C699.76,289.09,699.14,289.83,698.3,289.91z"/>
						<path class="st33" d="M688.96,321.24l-7.17,0.67c-0.84,0.08-1.58-0.54-1.66-1.37l-2.2-23.52c-0.08-0.84,0.54-1.58,1.37-1.66
							l7.17-0.67c0.84-0.08,1.58,0.54,1.66,1.37l2.2,23.52C690.41,320.42,689.8,321.16,688.96,321.24z"/>
						<path class="st33" d="M699.39,301.52l-7.17,0.67c-0.84,0.08-1.58-0.54-1.66-1.37l-0.46-4.95c-0.08-0.84,0.54-1.58,1.37-1.66
							l7.17-0.67c0.84-0.08,1.58,0.54,1.66,1.37l0.46,4.95C700.84,300.7,700.23,301.44,699.39,301.52z"/>
						<path class="st33" d="M700.26,310.81l-7.17,0.67c-0.84,0.08-1.58-0.54-1.66-1.37l-0.46-4.95c-0.08-0.84,0.54-1.58,1.37-1.66
							l7.17-0.67c0.84-0.08,1.58,0.54,1.66,1.37l0.46,4.95C701.71,309.99,701.09,310.73,700.26,310.81z"/>
						<path class="st33" d="M701.13,320.1l-7.17,0.67c-0.84,0.08-1.58-0.54-1.66-1.37l-0.46-4.95c-0.08-0.84,0.54-1.58,1.37-1.66
							l7.17-0.67c0.84-0.08,1.58,0.54,1.66,1.37l0.46,4.95C702.58,319.28,701.96,320.02,701.13,320.1z"/>
						
							<linearGradient id="SVGID_5_" gradientUnits="userSpaceOnUse" x1="644.7158" y1="380.5262" x2="644.7158" y2="433.5561" gradientTransform="matrix(0.9957 -0.093 0.093 0.9957 7.3494 -44.3691)">
							<stop  offset="0" style="stop-color:#FFFFFF;stop-opacity:0.3"/>
							<stop  offset="0.8949" style="stop-color:#FFFFFF;stop-opacity:0"/>
						</linearGradient>
						<path class="st34" d="M695.8,274.3l-21.26,1.99c-0.46,0.04-0.8,0.45-0.76,0.92l4.44,47.47c0.04,0.46,0.45,0.8,0.92,0.76
							l4.58-0.43L695.8,274.3z"/>
					</g>
					<path class="st26" d="M711.08,298.16c-0.64-1.2-1.77-2.12-2.85-2.98c-2.49-1.98-4.98-3.97-7.47-5.95
						c-1.33-1.06-3.07-2.18-4.62-1.46c-1.18,0.56-1.68,2.04-1.49,3.33c0.19,1.29,0.91,2.43,1.61,3.53
						c-3.87-0.67-3.82,3.45-1.89,5.67c0.4,0.46,2.64,2.72,3.3,2.48c-1.76,0.65-2.51,2.91-2.03,4.73c0.49,1.82,1.9,3.24,3.38,4.39
						c-0.78-0.24-1.2,0.9-1.14,1.71c0.24,3.44,1.9,6.73,4.45,9.04c1.01,0.92,2.94,2.63,4.34,2.77c1.55,0.15,3.02-1.55,3.44-2.89
						c0.52-1.65,0.92-3.57-0.4-4.69c1.66-0.91,2.14-2.43,2.5-4.29c0.35-1.86-0.67-4.01-2.48-4.52c0.27-1.48,2.11-2.38,2.13-3.88
						c0.02-1.12-1.01-1.97-2.04-2.4c1.52-0.49,2.05-2.51,1.5-4.01C711.27,298.54,711.18,298.35,711.08,298.16z"/>
					<path class="st26" d="M669.76,307.27c1.5-2.18,3.01-4.36,4.51-6.54c1.28-1.85,2.44-5.56,4.9-6.16c3.08-0.74,4.8,4.46,4.66,6.77
						c-0.14,2.3-1.17,4.47-2.51,6.35c-0.55,0.77-1.19,1.65-0.96,2.57c0.17,0.68,0.81,1.32,1.14,1.94c2.22,4.21,3.44,9.05,2.4,13.76
						c-0.46,2.11-1.25,4.13-2.16,6.07c-0.8,1.71-1.55,3.85-2.89,5.18"/>
					<path class="st27" d="M682.95,315.78c1.17,4.58,1.17,9.46-0.01,14.04"/>
					<path class="st27" d="M698.63,316.81c1.74,3.35,4.18,6.33,7.11,8.71"/>
					<path class="st27" d="M695.21,294.38c5.43,2.24,10.58,5.14,15.31,8.62"/>
					<path class="st27" d="M696.39,302.6c5.31,0.56,10.42,2.81,14.43,6.33"/>
					<path class="st27" d="M697.95,311.37c2.92,0.35,5.59,1.73,7.89,3.51c2.05,1.58,5.07,4.03,4.75,6.97
						c-0.15,1.37-1.18,2.45-2.16,3.43"/>
					<path class="st27" d="M720.56,358.65c3.9,9.25,7.36,18.68,10.35,28.26"/>
					<path class="st27" d="M681.42,355.19c1.76,13.27,5.05,26.34,9.8,38.85"/>
				</g>
			</g>
			<g>
				<g>
					<path class="st35" d="M68.26,389.86l9.19-27.06l-40.21-20.91c-8.98,13.81-18.51,32.62-16.92,47.37c0.43,4,1.31,8.43,3.07,12.09
						c3.06,6.36,7.59,11.92,12.23,17.27c13.2,15.22,27.72,29.29,42.98,42.5l14.5-38.19L68.26,389.86z"/>
					<path class="st36" d="M86.85,415.08c-8.11,17.12-11.41,35.91-13.06,54.64c-2,22.59-3.96,45.18-4.91,67.84l56.88,0.39
						c4.77-20.46,10.52-60.68,10.52-60.68l2.8,60.68h60.66c0,0-4.03-67.48-7.34-84.9c-3.95-20.78-15.41-47.63-15.41-47.63"/>
					<line class="st37" x1="136.27" y1="477.27" x2="138.96" y2="453.37"/>
					<path class="st37" d="M160.34,417.28c5.16,9.07,14.1,15.9,24.2,18.51"/>
					<path class="st37" d="M87.78,436.13c9.34-1.14,17.83-7.63,21.39-16.34"/>
					<path class="st37" d="M95.48,416.22c-11.36,18.49-11.82,40.1-13.64,60.82c-1.74,19.78-7.32,60.56-7.32,60.56"/>
					<path class="st35" d="M190.64,327.15c13.48,5.69,27.3,11.48,41.97,13.15c6.55,0.75,12.98,1.34,18.58-2.59
						c4.47-3.14,7.74-7.87,9.79-12.88c2.88-7.04,3.65-14.74,4.46-22.31c2.33-21.89,4.49-65.82,4.49-65.82s-21.21-1.32-31.71-1.91
						c-3.54,20.57-8.7,38.86-13.14,59.25c-8.94-2.72-17.86-5.18-26.8-7.9"/>
					<g>
						<path class="st35" d="M237.33,228.45c6.77-9.79,17.18-23.35,25.42-31.94c4.77,8.59,9.31,17.53,13.48,26.42
							c-2.08,5.93-3.82,11.66-7.81,16.51c-1.54,1.88-3.34,3.54-5.24,5.04"/>
						<g>
							<path class="st29" d="M271.99,228.35l-25.12,6.63c-1.55,0.41-3.13-0.51-3.54-2.06l-12.5-47.37
								c-0.41-1.55,0.51-3.13,2.06-3.54l25.12-6.63c1.55-0.41,3.13,0.51,3.54,2.06l12.5,47.37
								C274.46,226.35,273.54,227.94,271.99,228.35z"/>
							<path class="st32" d="M245.22,232.48l-12.53-47.49c-0.13-0.48,0.16-0.97,0.64-1.1l25.24-6.66c0.48-0.13,0.97,0.16,1.09,0.64
								l12.53,47.49c0.13,0.48-0.16,0.97-0.64,1.09l-25.24,6.66C245.84,233.24,245.35,232.96,245.22,232.48z"/>
							<path class="st33" d="M259.83,193.73l-19.46,5.14c-0.81,0.21-1.65-0.27-1.86-1.08l-2.71-10.28
								c-0.21-0.81,0.27-1.65,1.08-1.86l19.46-5.14c0.81-0.21,1.65,0.27,1.86,1.08l2.71,10.28
								C261.13,192.68,260.64,193.52,259.83,193.73z"/>
							<path class="st33" d="M255.63,227.19l-7.27,1.92c-0.81,0.21-1.65-0.27-1.86-1.08l-6.24-23.65c-0.21-0.81,0.27-1.65,1.08-1.86
								l7.27-1.92c0.81-0.21,1.65,0.27,1.86,1.08l6.24,23.65C256.92,226.14,256.44,226.97,255.63,227.19z"/>
							<path class="st33" d="M262.9,205.36l-7.27,1.92c-0.81,0.21-1.65-0.27-1.86-1.08l-1.33-5.05c-0.21-0.81,0.27-1.65,1.08-1.86
								l7.27-1.92c0.81-0.21,1.65,0.27,1.86,1.08l1.33,5.05C264.2,204.32,263.71,205.15,262.9,205.36z"/>
							<path class="st33" d="M265.36,214.67l-7.27,1.92c-0.81,0.21-1.65-0.27-1.86-1.08l-1.33-5.05c-0.21-0.81,0.27-1.65,1.08-1.86
								l7.27-1.92c0.81-0.21,1.65,0.27,1.86,1.08l1.33,5.05C266.65,213.62,266.17,214.45,265.36,214.67z"/>
							<path class="st33" d="M267.81,223.97l-7.27,1.92c-0.81,0.21-1.65-0.27-1.86-1.08l-1.33-5.05c-0.21-0.81,0.27-1.65,1.08-1.86
								l7.27-1.92c0.81-0.21,1.65,0.27,1.86,1.08l1.33,5.05C269.11,222.92,268.63,223.76,267.81,223.97z"/>
							
								<linearGradient id="SVGID_6_" gradientUnits="userSpaceOnUse" x1="245.5128" y1="176.9324" x2="245.5128" y2="231.628" gradientTransform="matrix(0.9669 -0.2552 0.2552 0.9669 -39.2119 72.0151)">
								<stop  offset="0" style="stop-color:#FFFFFF;stop-opacity:0.3"/>
								<stop  offset="0.8949" style="stop-color:#FFFFFF;stop-opacity:0"/>
							</linearGradient>
							<path class="st38" d="M254.6,178.29l-21.3,5.62c-0.46,0.12-0.74,0.6-0.62,1.06l12.55,47.54c0.12,0.46,0.6,0.74,1.06,0.62
								l4.59-1.21L254.6,178.29z"/>
						</g>
						<path class="st35" d="M239.19,245.5c0.41-2.97-1.45-5.7-2.9-8.33c-2.61-4.75-5.13-11.03-5.63-16.42
							c-0.61-6.54-0.75-13.13-0.41-19.69c0.02-0.48,0.06-0.99,0.34-1.38c0.7-0.99,2.28-0.52,3.21,0.27c1.67,1.42,2.65,3.5,3.17,5.63
							c0.51,2.13,0.59,4.33,0.73,6.52c0.02,0.34,0.06,0.7,0.29,0.95c0.17,0.18,0.42,0.26,0.65,0.34c4.98,1.72,8.1,6.83,10.14,11.47
							c2.18,4.96,3.11,10.48,2.54,15.88"/>
						<path class="st35" d="M265.79,187.88c3.76-0.81,3.62,6.69,3.62,8.85c1.38-0.33,2.83,0.52,3.59,1.72
							c0.76,1.2,0.96,2.66,1.01,4.08c0.06,1.53-0.03,3.07-0.25,4.58c0.78-0.22,1.62,0.27,2.05,0.96s0.54,1.52,0.61,2.33
							c0.14,1.69,0.13,3.4-0.02,5.09c0.61,0.04,1.12,0.53,1.37,1.09c0.24,0.56,0.26,1.19,0.25,1.81c-0.1,3.6-1.64,6.97-3.74,9.84
							c-0.92,1.26-2.17,3.13-3.54,3.93c-1.79,1.05-2.54-1.71-2.5-2.97c0.05-1.56,0.41-3.1,1.05-4.52c-0.51,0.46-0.9,1.06-1.45,1.48
							c-0.55,0.42-1.37,0.62-1.92,0.2c-0.22-0.17-0.37-0.41-0.49-0.66c-1.17-2.36-0.56-5.19,0.22-7.71
							c-0.48,0.69-1.07,1.44-1.9,1.51c-0.61,0.05-1.2-0.31-1.57-0.8c-0.37-0.49-0.55-1.1-0.68-1.7c-0.65-3-0.08-5.8,0.96-8.62
							c-1.48,0.14-3.29,0.11-4.04-1.17c-0.37-0.63-0.36-1.4-0.31-2.12c0.43-5.65,3.26-10.8,6.02-15.74
							C264.54,188.59,264.98,188.05,265.79,187.88z"/>
						<path class="st39" d="M261.17,209.34c3.72-3.99,7.58-8.26,8.72-13.59"/>
						<path class="st39" d="M265.09,218.77c3.72-3.99,7.58-8.26,8.72-13.59"/>
						<path class="st39" d="M268.06,226.11c3.72-3.99,7.58-8.26,8.72-13.59"/>
						<path class="st39" d="M238.17,212.52c8.43,4.81,13.68,13.98,13.21,23.09"/>
						<path class="st39" d="M268.12,228.84c-0.08,0.73-0.01,1.5,0.32,2.16s0.93,1.2,1.66,1.34c0.61,0.12,1.26-0.06,1.79-0.38
							c0.53-0.33,0.97-0.79,1.36-1.28c0.83-1.04,1.48-2.22,1.92-3.48"/>
					</g>
					<path class="st10" d="M101.93,291.44c-16.87,1.65-38.7,2.58-49.94,17.42c-12.34,16.29-18.61,36.82-28.32,54.67
						c17.08,9.57,36.04,16.02,55.29,19.62c3.72-12.2,6.89-23.52,10.29-35.82"/>
					<path class="st40" d="M29.56,350.68c16.81,8.46,34.61,14.97,52.91,19.37"/>
					<path class="st10" d="M128.75,287.84c9.52-3.63,19.51-6.08,29.66-7.29c8.39-1,17.64-2.12,25.91-0.28
						c14.86,3.31,19.19,5.82,34.06,9.13c0.42,13.61,0.56,39.72-12.55,53.25c-12.61-5.32-40.13-14.35-40.13-14.35"/>
					<path class="st10" d="M69.27,318.14c1.14,33.27,3.49,66.57,8.55,99.48c0.28,1.81,0.62,3.75,1.88,5.08
						c1.16,1.23,2.89,1.72,4.55,2.05c8.07,1.62,16.49,0.83,24.43-1.34c6.18-1.69,12.18-4.21,18.54-4.88
						c5.75-0.61,11.54,0.32,17.29,1.04c13.01,1.65,26.15,2.28,39.25,1.88c2.3-0.07,4.81-0.25,6.51-1.82
						c1.51-1.39,1.99-3.54,2.4-5.55c1.41-6.95,0.42-13.95,0.26-21.08c-0.19-8.38-0.38-16.76-0.57-25.14
						c-0.44-19.34-2.69-39.43,0.73-58.45c-7.96-9.97-22.05-11.93-34.69-13.68c-18.34-2.55-37.62-5.73-55.69-1.67
						C96.36,295.48,69.05,311.77,69.27,318.14z"/>
					<path class="st40" d="M73.33,382.02c-1.66-13.54-3.02-27.12-4.07-40.72c-0.28-3.56-4.57-9.29-4.57-9.29"/>
					<path class="st39" d="M49.82,383.27c2.14,0.31,4.28,0.67,6.4,1.1c2.54,0.51,5.09,1.13,7.37,2.34c1.73,0.92,3.25,2.17,4.76,3.41
						"/>
					<path class="st39" d="M225.37,293.65c-1.89,8.21-2.11,16.81-0.65,25.11"/>
					<path class="st40" d="M190.93,337.75c-0.57-8.12,0.55-16.36,3.27-24.04"/>
					<path class="st40" d="M91.09,294.21c0.97,2.62,2.6,4.95,4.5,7.01c2.1,2.27,4.55,4.25,7.32,5.62c3,1.49,6.31,2.25,9.63,2.74
						c8.63,1.26,17.88,0.61,25.39-3.83c7.51-4.45,12.79-13.28,11.26-21.87"/>
					<path class="st40" d="M126.01,418.19c11.47-3.11,23.37-4.68,35.26-4.63"/>
					<path class="st40" d="M194.32,338.06c9.84-14.17,12.53-35.08,9.98-51.86"/>
					<path class="st40" d="M107.49,399.12c18.84-9.86,34.96-24.87,46.14-42.96"/>
					<path class="st40" d="M98.49,386.74c11.1-2.58,21.51-8.06,29.91-15.75"/>
				</g>
				<g>
					<g>
						<path class="st41" d="M132.08,240.87c0.18-2.09,0.85-4.15,2.08-5.66c1.23-1.51,3.06-2.42,4.85-2.17
							c2.44,0.34,4.4,2.67,5.51,5.24c1.08,2.51,1.55,5.38,1.21,8.13c-0.34,2.75-1.53,5.36-3.36,7.11c-1.29,1.23-2.93,2.04-4.61,1.89
							c-1.67-0.15-3.33-1.38-3.9-3.23"/>
						<path class="st39" d="M140.56,240.07c-1.11-0.68-2.41-0.43-3.34,0.36c-1.96,1.67-2.28,4.92-2.7,7.74"/>
						<path class="st39" d="M141.28,246.87c-0.98-2.62-2.97-4.18-5.3-4.83"/>
					</g>
					<path class="st42" d="M123.64,222.08c4.81,5.65,8.48,12.25,10.76,19.31c0.15,0.47,0.34,0.99,0.78,1.21
						c0.86,0.43,1.71-0.6,2.11-1.47c2.38-5.28,3.56-11.66,0.75-16.73c-1.03-1.86-2.44-4.05-4.11-5.4c-1.99-1.61-4.88-2.61-7.16-3.79
						"/>
					<g>
						<path class="st41" d="M84.26,255.79c-1.53-1.43-3.41-2.51-5.34-2.8c-1.93-0.29-3.89,0.26-5.06,1.64
							c-1.59,1.89-1.47,4.93-0.57,7.59c0.88,2.58,2.45,5.03,4.55,6.84c2.1,1.81,4.72,2.95,7.26,3.02c1.78,0.05,3.54-0.46,4.68-1.69
							c1.14-1.23,1.54-3.26,0.72-5.01"/>
						<path class="st39" d="M77.42,260.89c0.37-1.24,1.49-1.94,2.73-1.97c2.57-0.07,4.99,2.13,7.2,3.93"/>
						<path class="st39" d="M81.45,266.42c-1.03-2.6-0.6-5.09,0.69-7.14"/>
					</g>
					<path class="st35" d="M133.81,265.07l-36.68,6.35l2.24,24.02c0,0,7.09,8.18,21.03,5.46c13.94-2.72,21.24-12.39,21.24-12.39
						L133.81,265.07z"/>
					<path class="st35" d="M85.25,217.1c-7.32,7.33-9.19,18.87-6.8,28.95c2.87,12.09,9.88,26.9,21.59,33.24
						c6.28,3.4,14.66,4.36,22.83,1.17c4.45-1.74,8.51-5.37,10.71-9.68c5.21-10.19,4.59-25.28,0.56-35.52
						c-2.52-6.42-5.15-13.29-10.31-18.1c-5.54-5.16-13.06-6.14-20.35-6.23C96.75,210.83,90.18,212.16,85.25,217.1z"/>
					<path class="st42" d="M137.49,211.83c-1.53-1.57-3.45-2.54-5.54-3.16c-0.7-2.5-2.18-4.78-4.22-6.39
						c-2.8-2.21-6.59-3.1-10.08-2.39c1.52-2.18,0.29-5.43-1.96-6.85c-2.25-1.41-5.11-1.39-7.73-0.93c-5.07,0.87-9.87,3.2-13.71,6.62
						c0.48-2.11-1.47-4.2-3.61-4.52c-2.14-0.32-4.27,0.68-6.02,1.96c-5.1,3.75-7.9,9.84-9.94,15.83c-3.39,2.89-6.59,6.83-8.16,11
						c-0.57,1.51-1,3.16-0.67,4.74c0.33,1.58,1.63,3.06,3.25,3.11c-1.61,1.92-2.81,4.18-3.5,6.59c-1.98,6.92,2.11,14.11,7.8,18.01
						c0.98,0.67,2.04,1.26,3.22,1.42c1.17,0.16,2.47-0.19,3.2-1.12c0.74-0.95,0.75-2.27,0.74-3.48c-0.07-5.17,0-10.34,0.2-15.5
						c0.06-1.66-0.34-4.13,0.89-5.43c1.04-1.09,3.96-2.23,5.38-2.49c1.57-0.29,3.14,0.36,4.63,0.95c3.29,1.3,6.84,2.38,10.32,1.77
						c2.99-0.52,5.86-2.62,6.73-5.44c4.42,2.74,9.56,4.29,14.76,4.4c1.87,0.04,3.86-0.14,5.33-1.3c1.47-1.16,2.05-3.58,0.73-4.9
						c1.57,0.39,3.16,0.79,4.78,0.76c1.62-0.03,3.29-0.53,4.41-1.7c1.01-1.06,1.47-2.56,1.56-4.02
						C140.45,216.62,139.41,213.81,137.49,211.83z"/>
					<g>
						<circle class="st43" cx="91.63" cy="252.16" r="14.16"/>
						
							<ellipse transform="matrix(0.4224 -0.9064 0.9064 0.4224 -146.4765 252.8033)" class="st43" cx="125.11" cy="241.33" rx="14.16" ry="14.16"/>
						<path class="st43" d="M102.09,242.27c2.48-2.21,5.62-3.28,8.67-2.96"/>
					</g>
					<path class="st39" d="M110.17,248.75c0.31,1.36,1.22,2.57,2.43,3.26c0.48,0.27,1.01,0.47,1.42,0.84
						c1.98,1.8,0.04,4.54-1.44,5.95"/>
					<path class="st39" d="M108.6,262.5c1.42,0.66,2.97,1.14,4.53,1c1.56-0.14,3.12-0.98,3.78-2.4"/>
					<path class="st39" d="M106.58,281.53c4.26,1.39,8.96,1.43,13.24,0.09c4.28-1.34,8.13-4.03,10.84-7.6"/>
					<path class="st31" d="M122.66,242.76c0.28,0.83,0.51,1.81,0.4,2.49c-0.12,0.78-0.63,1.2-1.18,1.41
						c-0.4,0.15-1.06,0.19-1.49-0.07c-0.67-0.41-1.1-1.37-1.47-2.45c-0.33-0.97-0.53-2.09-0.33-2.83c0.16-0.6,0.64-0.9,1.11-1.07
						c0.51-0.19,1.15-0.23,1.68,0.21C121.92,240.91,122.36,241.86,122.66,242.76z"/>
					<path class="st31" d="M100,250.35c0.33,0.81,0.62,1.78,0.56,2.46c-0.07,0.78-0.55,1.24-1.09,1.48
						c-0.39,0.18-1.05,0.26-1.5,0.03c-0.7-0.36-1.19-1.29-1.63-2.35c-0.39-0.95-0.66-2.06-0.51-2.8c0.12-0.61,0.58-0.94,1.04-1.14
						c0.5-0.22,1.13-0.31,1.69,0.1C99.14,248.55,99.64,249.48,100,250.35z"/>
					<path class="st44" d="M108.88,226.96c-0.82-3.39-3.36-6.16-6.31-8.02c-2.95-1.86-6.32-2.92-9.65-3.97"/>
					<path class="st44" d="M89.48,228.94c-0.72-0.72-1.77-0.99-2.78-1.14c-2.94-0.44-5.99-0.11-8.77,0.95"/>
					<path class="st44" d="M130.16,225.43c-2.28-3.13-4.65-6.33-7.94-8.36c-3.4-2.1-7.49-2.75-11.47-3.13"/>
					<path class="st44" d="M133.01,208.79c-6.75-1.98-14-2.21-20.86-0.66"/>
					<path class="st44" d="M118.12,199.51c-3.3,0.69-6.47,1.84-9.64,2.98c-2.43,0.88-4.97,1.82-6.73,3.71"/>
					<path class="st44" d="M95.61,197.38c-3.16,2.45-6.17,5.11-8.99,7.95"/>
					<path class="st42" d="M90.97,241.14c-1.08,0.13-2.19,0.57-2.81,1.46c-0.62,0.89-0.56,2.3,0.34,2.91
						c0.35,0.24,0.77,0.33,1.19,0.37c1.37,0.11,2.72-0.39,4.1-0.37c0.94,0.01,2.02,0.22,2.7-0.43c0.69-0.65,0.51-1.85-0.09-2.59
						C95.02,240.76,92.99,240.89,90.97,241.14z"/>
					<path class="st42" d="M120.27,232.8c1-0.42,2.18-0.59,3.16-0.12c0.98,0.47,1.62,1.72,1.14,2.7c-0.19,0.38-0.51,0.67-0.86,0.91
						c-1.13,0.78-2.56,1.01-3.74,1.7c-0.81,0.47-1.65,1.19-2.56,0.96c-0.92-0.23-1.35-1.36-1.21-2.3
						C116.55,234.47,118.39,233.58,120.27,232.8z"/>
				</g>
			</g>
			<g>
				<g>
					<g>
						<path class="st45" d="M285.83,317.75c0,0,21.94,44.3,23.38,47.85c1.64,4.05,2.21,8.52,1.63,12.84
							c-0.82,6.16-3.86,11.81-7.35,16.95c-5.92,8.73-13.72,16.39-20.98,24c-4.78,5.01-9.72,9.87-14.51,14.86
							c-4.27,4.45-5.64,10.58-6.37,16.58c-0.72,5.91-0.98,12-3.25,17.51c-2.53,6.12-7.4,11.1-9.54,17.36
							c-0.23,0.67-1.92,6.15-2.08,6.15c-1.29-0.06-2.28-1.56-1.83-2.77c-0.53,0.89-2.88-0.06-3.48-0.89
							c-2.82-3.93-2.03-8.92-1.59-13.74c0.44-4.81,1.41-9.68,0.55-14.44c-0.63-3.45-2.21-6.69-2.75-10.16
							c-0.49,2.03-4.22,15.4-8.3,12.62c-0.75-0.51-0.94-1.52-1.01-2.42c-0.33-3.71,0.12-7.44,0.6-11.13
							c0.54-4.16,1.13-8.33,2.23-12.38c3.26-12,10.75-22.15,17.53-32.36c3.37-5.08,15.79-23.79,15.43-24.53
							c-0.01-0.02-15.43-31.59-15.43-31.59"/>
						<path class="st46" d="M262.25,380.91c6.82-7.13,15.61-12.36,25.13-14.94"/>
						<path class="st46" d="M237.42,452.96c-0.29-2.15-0.57-4.3-0.86-6.44"/>
						<path class="st46" d="M243.94,489.76c2.01-4.82,3.57-9.77,4.67-14.78c0.96-4.38,1.58-8.81,1.83-13.24"/>
						<path class="st46" d="M250.58,480.42c0.42-1.93,1.47-3.65,2.3-5.44c1.78-3.82,2.6-8,3.4-12.14"/>
					</g>
					<g>
						<path class="st47" d="M259.91,406.96c12.11,14.63,19.63,32.82,25.57,51.18c9.9,30.56,15.93,62.32,21.89,93.99
							c-1.85,0.19-86.52,0.84-86.52,0.84c-3.2-14.43-4.84-28.8-6.66-43.49c-5.28-42.48-5.7-85.44-6.11-128.27"/>
						<path class="st47" d="M179.15,409.31c-4.05,8.85-8.12,17.74-11.2,27.15c-12.58,38.39-14.51,122.25-14.51,122.25
							s3.18,0.08,4.43,0.08h78.77c1.7-54.76-0.61-110.57-7.76-164.68"/>
						<path class="st48" d="M236.59,558.78c1.84-54.76-0.66-110.57-8.41-164.68"/>
						<path class="st48" d="M209.06,415.97c-0.4,47.41-3.02,94.81-7.83,141.95"/>
						<path class="st48" d="M263.34,435.64c12.13,37.52,16.13,77.32,20.06,116.73"/>
						<path class="st48" d="M169.78,454.16c8.89-1.51,16.1-8.61,20.85-16.65c4.75-8.04,7.56-17.15,11.34-25.74"/>
						<path class="st48" d="M251.38,414.42c3.64,13.45,13.17,25.08,25.43,31.01"/>
						<path class="st48" d="M234.74,456.89c3.02,0.09,6.48,0,8.46-2.4c1.29-1.56,1.61-3.74,1.78-5.8c0.21-2.56,0.25-5.13,0.12-7.69
							c-0.19-3.95-2.48-25.03-4.6-33.68"/>
					</g>
					<g>
						<path class="st11" d="M190.33,363.81c-0.86-5.69-2.41-22.64-2.41-22.64l63.06,1.27c0,0,4.16,19.59,9.66,26.46
							c16.59-6.01,39.63-27.22,39.63-27.22s-16.86-38.27-31.51-50.09c-4.24-3.42-15.08-3.79-20.47-3.34
							c-7.3,0.61-14.52,2.02-21.82,2.51c-18.15,1.22-36.69,1.66-54.71,4c-7.68,1-15.54,3.32-21.11,8.7
							c-6.89,6.64-8.91,16.4-10.14,25.51c-0.9,6.64-2.1,32.09-2.8,37.93C155.03,370.58,173.39,368.96,190.33,363.81z"/>
						<path class="st49" d="M267.22,321.59c-1.11,7.26-2.23,14.6-1.66,21.93"/>
						<path class="st49" d="M192.92,305.5c5.94,4.9,13.73,7.35,21.39,7.13c7.18-0.2,16.53-2.63,19.32-10.1"/>
						<path class="st20" d="M181.76,417.33c6.06-0.27,12.11-0.6,18.16-1.04c7.35-0.53,14.69-1.15,22.02-1.85
							c0.07-0.01,0.15-0.03,0.22-0.02c0,0,21.79,2.29,34.13,3.66c4.76,0.53,10.27,0.32,14.41-2.37c5.5-3.57,5.1-9.69,4.33-15.46
							c-0.57-4.26-0.14-8.8-0.17-13.1c-0.06-8.9-0.22-17.79-0.5-26.68c-0.2-6.42-0.49-12.97-2.83-18.95
							c-2.51-6.4-10.97-14.27-15.55-19.4c-21.49,5.39-41.48,7.1-63.62,6.21c-1.86-0.07-3.68,3.6-4.43,4.89
							c-1.6,2.74-3.74,5.2-5.61,7.77c-2.6,3.58-3.11,7.18-3.13,11.56c-0.02,4.94,0.14,9.87,0.34,14.81
							c0.18,4.53,0.84,9.31,0.16,13.76c-0.96,6.29-4.11,11.91-6.87,17.55c-2.17,4.44-5.71,11.25-1.77,15.77
							C173.63,417.34,177.88,417.5,181.76,417.33z"/>
						<path class="st49" d="M177.69,331.51c1.35,11.32,2.01,22.78,1.98,34.24"/>
						<path class="st50" d="M182.57,292.93c6.5,12.52,10.18,26.68,10.64,40.98"/>
						<path class="st50" d="M246.08,287.93c6.18,11.45,9.41,24.49,9.27,37.51"/>
						<g>
							<g>
								<path class="st29" d="M247.41,338.15h-21.53c-1.5,0-2.63-1.36-2.36-2.83l7.56-41.52c0.23-1.28,1.35-2.21,2.65-2.21h21.53
									c1.5,0,2.63,1.36,2.36,2.83l-7.56,41.52C249.82,337.22,248.71,338.15,247.41,338.15z"/>
								<path class="st51" d="M224.6,336.35l7.56-41.52c0.23-1.28,1.35-2.21,2.65-2.21h21.53c0.37,0,0.71,0.08,1.02,0.23
									c-0.4-0.74-1.18-1.26-2.11-1.26h-21.53c-1.3,0-2.41,0.93-2.65,2.21l-7.56,41.52c-0.2,1.11,0.39,2.15,1.34,2.6
									C224.61,337.46,224.5,336.92,224.6,336.35z"/>
								<path class="st51" d="M244.74,311.74c0,0.93-1.14,1.68-2.55,1.68s-2.55-0.75-2.55-1.68c0-0.93,1.14-1.68,2.55-1.68
									S244.74,310.82,244.74,311.74z"/>
							</g>
							<path class="st45" d="M146.04,368.26c2.68,13.8,3.74,19.96,8.32,33.25c3.43,9.96,8.67,17.55,20.13,19.47
								c9.79,1.65,18.01-5.98,24.99-12.09c10.78-9.43,37.48-50.24,37.48-50.24l-24.37-16.47l-34.93,24.74
								C169.99,368.88,159.5,368.92,146.04,368.26z"/>
							<path class="st46" d="M177.74,366.8c-6.3,3.95-11.14,10.16-13.42,17.24"/>
							<g>
								<path class="st45" d="M207.06,349.9c2.63-4.16,3.12-9.44,4.8-14.15c2.66-7.45,8.19-13.2,13.56-18.69
									c0.5-0.51,1.03-1.04,1.69-1.28c1.95-0.71,3.89,1.66,3.82,3.87s-1.41,4.12-2.69,5.85c5.31-0.06,10.42-2.24,14.7-5.56
									c2.07-1.61,3.55-3.79,4.86-6.12c1.7-3.02,2.58-5.53,5.5-7.5c2.34-1.58,4.04-1.14,3.81,2.2c-0.2,2.94-1.71,5.52-2.35,8.61
									c-1.11,2.49-1.49,4.6-1.35,7.5c0.07,1.47,0.44,2.98,0.07,4.39c-0.27,1-0.88,1.84-1.26,2.8c-0.9,2.25-0.13,4.32-0.36,6.6
									c-0.18,1.85-1.25,3.65-2.13,5.23c-2.09,3.73-4.82,7-7.56,10.18c-7.11,8.27-14.5,16.26-22.15,23.96"/>
								<path class="st46" d="M222.33,326.59c1.87-0.36,4.17,0.05,5.89-0.53"/>
								<path class="st46" d="M255.07,316.38c-2.64,6.33-6.78,12.04-11.98,16.51"/>
								<path class="st46" d="M253.67,328.37c-1.61,3.89-3.97,7.47-6.91,10.49"/>
								<path class="st46" d="M251.37,337.21c-1.26,2.99-3.14,5.73-5.48,7.98"/>
							</g>
							<g>
								<path class="st29" d="M228.06,372.68c-11.2-4.37-21.06-12.3-27.78-22.33l4.31-3.15c5.91,8.82,16.2,17.08,26.05,20.92
									L228.06,372.68z"/>
							</g>
							<path class="st11" d="M222.17,367.38c-1.66,2.44-5.66,2.62-8.93,0.4c-3.27-2.22-4.57-6.01-2.9-8.45
								c1.66-2.44,5.66-2.62,8.93-0.4C222.53,361.15,223.83,364.94,222.17,367.38z"/>
						</g>
					</g>
				</g>
				<g>
					<path class="st52" d="M238.05,241.77c6.37,11.33,12.56,22.76,18.56,34.28"/>
					<path class="st53" d="M242.92,254.03c-2.28-5.17-4.58-10.37-7.65-15.13c-3.07-4.75-6.97-9.08-11.86-11.91l-2.26,57.75
						c6.96,1.17,14.05-0.56,20.85-2.46c3.95-1.1,7.86-2.4,11.61-4.08C250.04,270.15,246.48,262.09,242.92,254.03z"/>
					<path class="st54" d="M232.64,250.57c1.88,3.66,3.3,7.53,4.71,11.4c2.36,6.46,4.72,12.92,7.08,19.38"/>
					<path class="st54" d="M229.92,251.37c1.39,3.87,2.28,7.9,3.18,11.91c1.5,6.71,2.99,13.43,4.49,20.14"/>
					<path class="st45" d="M194.63,274.47l-2.94,21.57c0,0,6.48,11.93,23.65,9.99c17.16-1.94,13.3-12.03,13.3-12.03l-2.41-20.51
						L194.63,274.47z"/>
					<path class="st45" d="M234.55,246.89c0.79,9.12,1.65,20.39-1.98,29.1c-4.22,10.12-14.57,13.71-24.28,11.61
						c-10.08-2.18-20.23-7.21-27.45-14.98c-6.07-6.53-9.46-16.31-10.21-25.15c-0.63-7.48,1.15-15.4,6.07-21.07
						c2.31-2.66,5.22-4.74,8.21-6.61c4.06-2.54,8.41-4.75,13.1-5.73c10.12-2.1,20.83,1.94,28.62,8.73c3.34,2.91,5.4,6.91,6.62,11.11
						C234.46,238.1,234.17,242.53,234.55,246.89z"/>
					<path class="st31" d="M228.72,249.54c0.12,0.89,0.15,1.94-0.09,2.6c-0.28,0.76-0.88,1.09-1.48,1.19
						c-0.44,0.07-1.11-0.02-1.5-0.37c-0.6-0.55-0.84-1.61-1-2.77c-0.14-1.05-0.11-2.23,0.24-2.93c0.29-0.58,0.83-0.78,1.34-0.86
						c0.56-0.09,1.21-0.01,1.66,0.55C228.34,247.52,228.59,248.57,228.72,249.54z"/>
					<path class="st31" d="M204.47,251.54c0.18,0.88,0.28,1.92,0.08,2.61c-0.23,0.78-0.81,1.15-1.4,1.28
						c-0.43,0.1-1.11,0.05-1.52-0.27c-0.64-0.51-0.95-1.55-1.18-2.7c-0.21-1.04-0.26-2.21,0.05-2.94c0.25-0.59,0.78-0.83,1.28-0.95
						c0.55-0.13,1.21-0.08,1.69,0.44C203.96,249.54,204.28,250.58,204.47,251.54z"/>
					<path class="st46" d="M217.79,245.95c-1.33,1.86-1.75,4.34-1.11,6.54c0.34,1.15,0.92,1.76,1.99,2.21
						c0.75,0.31,1.91,0.45,2.3,1.27c0.79,1.64-1.39,3.87-2.44,4.89"/>
					<path class="st53" d="M204.61,239.25c0.54,0.41,0.99,0.98,1.16,1.65c0.17,0.67,0.03,1.46-0.46,1.95
						c-0.51,0.51-1.28,0.63-1.98,0.58c-0.7-0.05-1.39-0.22-2.09-0.17c-1.29,0.09-2.67,1.03-3.95,0.51c-1.24-0.5-1.57-1.84-0.85-2.96
						C198.05,238.29,202.35,237.51,204.61,239.25z"/>
					<path class="st53" d="M228.4,237.04c1.19,0.33,2.29,1.47,2.44,2.72c0.05,0.46-0.15,0.97-0.56,1.16
						c-0.35,0.16-0.76,0.07-1.14,0.02c-1.03-0.14-2.11,0-3.07,0.42c-0.32,0.14-0.63,0.3-0.97,0.36c-0.86,0.15-1.75-0.49-1.99-1.33
						c-0.79-2.7,3.2-3.8,5.17-3.38C228.31,237.02,228.36,237.03,228.4,237.04z"/>
					<path class="st46" d="M227.32,283.66c-2.33,2.14-5.17,3.97-8.31,4.45c-6.61,1.02-12.92-0.72-18.73-3.96"/>
					<path class="st55" d="M213.51,267.48c3.09,1.21,6.77,0.78,9.49-1.11"/>
					<path class="st53" d="M229.66,212.2c-4.83-3.57-10.4-6.27-16.3-7.44c-10.03-1.98-23.6-1.26-32.46,11.11
						c-1.5,0.51-2.91,1.16-4.24,2.04c-2.59,1.71-4.75,4.06-6.39,6.7c-2.97,4.79-4.34,10.38-5.4,15.92c-2,10.51-0.89,28.09-0.89,38.8
						c8.07,6.25,21.42,6.75,30.61,6.75c0.64-13.11-10.25-32.63-8.74-34.97c1.15-1.79,3.01-2.96,4.44-4.53
						c2.59-2.83,3.63-6.82,3.63-10.66c0-3.85-0.94-7.62-1.88-11.35c4.79-1.25,9.97-1.42,14.9-0.91c4.48,0.47,8.97,1.51,12.85,3.82
						c9.4,5.59,12.84,16.08,16.13,25.98l16.52-12.69C245.9,230.23,239.86,219.73,229.66,212.2z"/>
					<path class="st54" d="M183.74,217.3c1.03,0.53,2.05,1.06,3.02,1.7c2.46,1.61,4.49,3.88,5.82,6.51"/>
					<path class="st54" d="M214.62,219.02c10.98,7.98,19.32,19.54,23.43,32.48"/>
					<path class="st54" d="M227.27,217.24c5.76,3.09,9.37,9,12.49,14.74c2.31,4.26,4.5,8.59,6.67,12.92"/>
					<path class="st54" d="M188.12,229.23c1.85,8.4-0.62,17.26-4.77,24.8c1.71,4.67,2.82,10.07,3.5,15
						c0.79,5.73,1.34,11.08,1.34,16.92"/>
					<g>
						<path class="st45" d="M194.13,255.31c-1.14-1.9-2.84-3.49-4.94-4.25c-2.1-0.76-4.61-0.61-6.56,0.63
							c-2.66,1.68-3.87,5.01-3.99,8.08c-0.12,3,0.63,6.01,2.26,8.45c1.63,2.44,4.16,4.27,7.06,4.93c2.03,0.46,4.29,0.31,6.15-0.76
							c1.86-1.07,3.21-3.18,3.03-5.26"/>
						<path class="st46" d="M187.95,273.14c2.03,0.46,4.29,0.31,6.15-0.76c1.86-1.07,3.21-3.18,3.03-5.26"/>
						<path class="st46" d="M194.13,255.31c-1.14-1.9-2.84-3.49-4.94-4.25c-2.1-0.76-4.61-0.61-6.56,0.63"/>
						<path class="st46" d="M184,259.27c0.97-1.26,2.58-1.76,4.01-1.51c3.01,0.51,4.84,3.44,6.59,5.89"/>
						<path class="st46" d="M186.23,266.17c-0.04-3.05,1.54-5.65,3.93-7.57"/>
					</g>
					<path class="st54" d="M174.05,235.31c-2.28,8.81-2.18,18.03-1.99,27.13c0.15,7.25,0.99,20.85,0.99,20.85"/>
					<path class="st52" d="M175.42,220.12c-4.19,3.31-7.06,7.46-8.79,12.92c-1.73,5.47-3.07,14.68-3.78,20.44
						c-1.02,8.31-2.04,16.61-3.06,24.92"/>
				</g>
				<path class="st56" d="M222.17,415.45c10.58-1.77,21.27-2.82,31.99-3.16"/>
			</g>
			<g>
				<g>
					<g>
						<path class="st57" d="M456.36,394.49c-6.66,16.84-14.07,54.42-15.05,72.5c-1.74,32.24-5.2,78.57-5.2,78.57
							c0.82,0,80.05-0.16,80.05-0.16c3.07-52.76,1.69-103.77-3.71-156.34"/>
						<path class="st57" d="M494.11,395.23c-0.41,22.48,1.76,34.33,3.95,56.7c2.76,28.16,10.1,61.43,16.23,93.53l69.26,0.36
							c-3.78-32.35-8.99-64.81-15.41-96.74c-2.33-11.58-4.67-23.21-8.54-34.38c-3.9-11.28-9.35-22.04-16.14-31.86"/>
						<path class="st58" d="M491.01,441.21l7.05,10.72c2.76,28.16,10.1,61.43,16.23,93.53"/>
						<path class="st58" d="M515.59,401.23c14.95,46.56,29.66,144.43,29.66,144.43"/>
						<path class="st58" d="M525.8,400.72c3.41,10.32,6.88,20.74,12.52,30.03c5.65,9.29,13.75,17.48,23.98,21.16"/>
						<path class="st58" d="M449.77,435.61c2.95-0.13,5.76-1.55,8.13-3.69c2.56-2.31,3.6-5.57,5.02-9.02
							c3.23-7.81,5.85-16.03,7.8-24.48"/>
						<path class="st58" d="M481.75,398.42c-5.58,20.35-7.77,120.07-7.21,146.98"/>
						<path class="st58" d="M452.03,406.1c16.45,5.84,34.12,8,51.56,7.14c17.44-0.86,34.66-4.7,51.13-10.52"/>
						<path class="st58" d="M489.22,391.8c-0.07,3.41-0.14,6.83-0.21,10.24v28.77"/>
						<path class="st59" d="M497.58,406.5c0,1.25-1.01,2.26-2.26,2.26c-1.25,0-2.26-1.01-2.26-2.26c0-1.25,1.01-2.26,2.26-2.26
							C496.56,404.24,497.58,405.25,497.58,406.5z"/>
					</g>
					<path class="st45" d="M485.46,287.32c-5.11,1.35-10.23,2.7-15.34,4.05c-0.82,0.22-1.7,0.46-2.27,1.08
						c-0.64,0.69-0.77,1.68-0.86,2.61c-3.51,33.88-4.43,68-2.96,102.02c0.05,1.27,18.41,3.46,20.31,3.69
						c7.17,0.9,40.76,0.97,60.92-4.73c-1.18-3.13-7.71-23.67-9.1-32.03c-3.31-19.84,2.74-40.01,2.42-60.12
						c-0.03-1.66-0.11-3.39-0.91-4.85c-0.9-1.65-2.56-2.74-4.16-3.76c-7.99-5.1-16.18-10.3-25.46-12.49"/>
					<path class="st45" d="M514.07,265.55l4.21,22.38c0,0-6.52,12.7-25.32,11.37c-18.81-1.33-15.06-12.01-15.06-12.01l1.67-21.49
						L514.07,265.55z"/>
					<path class="st60" d="M546.69,296.02l-18.29-4.89c-5.11,9.23-10.97,14-19.54,17.81c-8.58,3.8-17.43,6.29-25.95,2.37
						c-6.33-2.91-12.05-8.64-12.21-15.6c-2.8-0.15-11.56,1.76-11.56,1.76c-5.01,26-6.32,52.72-3.86,79.08
						c30.11,3.53,61.21,6.19,90.75-0.61C549.22,350.89,548.56,321.2,546.69,296.02z"/>
					<path class="st61" d="M468.43,308.93c6.29,6.64,15.22,10.7,24.36,11.08s18.37-2.93,25.19-9.03"/>
					<path class="st62" d="M477.59,288.71c0,0-6.88-0.04-18.47,2.42c-8.65,1.83-17.29,6.82-20.76,16.18
						c-6.88,18.6-11.03,36.18-11.03,36.18l-39.42-35.03c0,0-30.86,12.86-41.85,17.88c0,0,29.85,42.7,41.77,56.49
						c13.42,15.53,31.63,34.6,48.29,27.65c6.44-2.68,12.63-7.97,17.96-18.69c7.56-15.19,16.65-45.43,16.65-45.43"/>
					<path class="st62" d="M560.45,384.53c-2.28-12.13-0.76-44.27-0.76-68.14l-26.89-27.94l-17.2-3.8
						c-1.07,3.01-7.79,40.84-7.01,62.94c0.5,14,4.85,85.84,9.84,91.95c4.99,6.11,37.69,27.75,53.63,25.54
						C571.6,455.91,562.15,393.56,560.45,384.53z"/>
					<path class="st62" d="M477.59,288.71c-0.3,8.93-0.73,17.86-1.29,26.77c-0.76,12.13-1.77,24.23-2.51,36.36
						c-1.89,31.14-2.05,89.95-5.79,96.72c-3.74,6.78-22.61,18.19-31.89,16.32c0.57-15.73,10.52-123.2,11.19-132.02
						c0.65-8.58,2.98-16.8,3.81-25.2"/>
					<g>
						<path class="st29" d="M579.64,419.38l-40.09,38.27c-2.6,2.48-6.71,2.38-9.19-0.21l-54.35-56.94c-2.48-2.6-2.38-6.71,0.21-9.19
							l40.09-38.27c2.6-2.48,6.71-2.38,9.19,0.21l54.35,56.94C582.33,412.79,582.23,416.9,579.64,419.38z"/>
						<path class="st51" d="M501.52,401.86l-5.61,5.36c-0.65,0.62-1.68,0.6-2.31-0.05l-10.3-10.79c-0.62-0.65-0.6-1.68,0.05-2.31
							l5.61-5.36c0.65-0.62,1.69-0.6,2.31,0.05l10.3,10.79C502.2,400.21,502.18,401.24,501.52,401.86z"/>
						<path class="st51" d="M532.86,457.53L478.91,401c-2.59-2.71-2.49-7,0.22-9.59l39.68-37.87c1.16-1.1,2.6-1.71,4.08-1.85
							c-2.3-0.75-4.92-0.24-6.79,1.54l-39.68,37.87c-2.71,2.59-2.81,6.88-0.22,9.59l53.95,56.53c1.48,1.55,3.52,2.24,5.51,2.07
							C534.63,458.96,533.67,458.37,532.86,457.53z"/>
						<path class="st51" d="M525.89,395.14c1.24,1.3,0.61,3.9-1.39,5.8c-2,1.9-4.63,2.38-5.86,1.08c-1.24-1.3-0.61-3.9,1.39-5.8
							S524.66,393.84,525.89,395.14z"/>
						<path class="st29" d="M491.82,392.41c0.94,1,0.6,2.86-0.77,4.16c-1.37,1.3-3.25,1.55-4.19,0.55c-0.94-1-0.6-2.86,0.77-4.16
							S490.88,391.42,491.82,392.41z"/>
						<path class="st29" d="M496.9,397.69c0.94,1,0.6,2.86-0.77,4.16c-1.37,1.3-3.25,1.55-4.19,0.55c-0.94-1-0.6-2.86,0.77-4.16
							C494.08,396.94,495.96,396.69,496.9,397.69z"/>
					</g>
					<g>
						<path class="st45" d="M544.54,404.36c-3.68,5-8.61,8.9-12.95,13.34c-4.19,4.28-7.84,9.09-10.85,14.27
							c-0.7,1.21-1.32,2.89-0.32,3.87c2.47,2.44,7.25-1.76,9.17-3.14c-0.79,0.57-1.07,1.94-1.47,2.78
							c-0.55,1.16-1.35,2.24-2.22,3.19c-0.7,0.76-1.52,1.48-2.52,1.73c-0.56,0.14-1.14,0.13-1.72,0.15
							c-0.85,0.02-1.69,0.11-2.52,0.25c-0.99,0.17-2,0.44-2.82,1.02c-0.82,0.59-1.43,1.55-1.36,2.56c0.02,0.21,0.06,0.43,0.17,0.62
							c0.35,0.58,1.06,0.58,1.6,0.86c0.59,0.3,4.32,1.21,6.46,1.67c2.42,1.13,3.53,3.92,6.19,4.18c0.9,0.09,1.81-0.13,2.69,0.08
							c0.47,0.11,0.9,0.34,1.34,0.53c1.51,0.65,3.21,0.86,4.84,0.6c0.58-0.09,1.15-0.24,1.74-0.29c0.86-0.07,1.72,0.08,2.59,0.08
							c1.43,0.01,2.84-0.37,4.18-0.85c4.23-1.52,8.56-4.06,12.02-6.94c1.43-1.19,2.42-3.27,3.44-4.83c1.39-2.12,2.71-4.29,4.08-6.43
							c3.72-5.8,7.23-11.75,11.33-17.3"/>
						<path class="st46" d="M528.86,434.02c1.53-2.1,2.85-4.35,3.94-6.71"/>
						<path class="st46" d="M522.45,447.61c2.56,0.17,5.24,0.33,7.6-0.7c1.14-0.5,2.14-1.25,3.11-2.02
							c2.86-2.28,5.51-4.82,7.92-7.56"/>
						<path class="st46" d="M531.42,451.72c1.07-0.55,2.33-0.51,3.47-0.88c0.97-0.32,1.81-0.92,2.63-1.53
							c2.9-2.15,5.72-4.42,8.45-6.8"/>
						<path class="st46" d="M540.13,452.72c4.51-2.02,8.65-4.86,12.17-8.33"/>
					</g>
					<path class="st62" d="M525.8,286.73c8.76,0.27,21.72,2.71,29.97,5.88c7.25,2.79,11.01,6.51,16.91,11.54
						c11.44,9.75,19.63,21.98,29.65,32.97c6.62,7.26,14.17,20.3,13.83,30.47c-0.4,11.69-5.61,19.61-12.37,28.95
						c-9.71,13.43-21.02,27.82-32.64,39.63c-10.94-9.29-23.67-19.69-35.35-25.46c11.95-14.84,30.55-39.76,30.55-39.76l-29.46-37.86"
						/>
					<path class="st63" d="M544.06,343.49c5.05,6.91,10.5,13.53,16.32,19.81"/>
					<path class="st63" d="M566.51,371.08c2.42-1.83,5.37-2.87,8.36-3.41c2.99-0.54,6.04-0.61,9.07-0.68"/>
					<path class="st63" d="M577.11,361.75c4.56-0.87,9.25-0.98,13.85-0.32"/>
					<path class="st63" d="M561.17,428.11c5.11-6.41,14.05-18.38,14.05-18.38"/>
					<path class="st64" d="M574.41,424.88c0,1.3-1.06,2.36-2.36,2.36s-2.36-1.06-2.36-2.36c0-1.3,1.06-2.36,2.36-2.36
						S574.41,423.58,574.41,424.88z"/>
					<path class="st64" d="M580,418.07c0,1.3-1.06,2.36-2.36,2.36c-1.3,0-2.36-1.06-2.36-2.36c0-1.3,1.06-2.36,2.36-2.36
						C578.95,415.71,580,416.77,580,418.07z"/>
					<path class="st64" d="M359.2,329.49c0,1.3-1.06,2.36-2.36,2.36c-1.3,0-2.36-1.06-2.36-2.36c0-1.3,1.06-2.36,2.36-2.36
						C358.14,327.13,359.2,328.19,359.2,329.49z"/>
					<path class="st64" d="M365.21,337c0,1.3-1.06,2.36-2.36,2.36c-1.3,0-2.36-1.06-2.36-2.36s1.06-2.36,2.36-2.36
						C364.16,334.64,365.21,335.7,365.21,337z"/>
					<path class="st63" d="M512.98,339.36c5.99-16.9,12.15-34.13,23.21-48.25"/>
					<path class="st63" d="M457.51,293.35c2.09,18,5.99,35.79,11.62,53.01"/>
					<path class="st63" d="M449.77,326.82c-2.92,14.42-6.34,64.08-9.19,81.94"/>
					<path class="st63" d="M426.68,342.02c5.46,8.32,11.42,15.71,10.9,27.02"/>
					<line class="st63" x1="358.13" y1="321.49" x2="372" y2="339.36"/>
				</g>
				<g>
					<path class="st65" d="M479.86,229.43c-0.64-4.74-2.21-9.76-5.61-13.27c-5.72-5.89-13.16,1.95-14.89,7.37
						c-2.09,6.55-1.96,12.83-8.33,17.1c-3.2,2.15-7.5,3.55-8.67,7.22c-1.55,4.84,3.62,10.39,1.14,14.83
						c-1.2,2.15-3.78,3.09-5.57,4.77c-2.81,2.63-3.46,7.04-2.26,10.7c1.2,3.66,3.97,6.62,7.11,8.84c3.85,2.72,6.71,5.22,7.26,10.18
						c0.24,2.13-0.23,4.4,0.61,6.37c0.66,1.55,2.03,2.68,3.45,3.59c2.41,1.53,5.2,2.59,8.05,2.49c2.85-0.1,5.75-1.5,7.17-3.97
						c2.24-3.88,0.52-9.31,3.24-12.86c1.76-2.3,4.86-3.07,7.09-4.93c1.81-1.5,2.99-3.74,3.21-6.08c0.32-3.41-1.12-7.46,1.28-9.91
						c2.54-2.59,3.59-5.87,2.19-9.58c-0.67-1.77-1.87-3.29-2.73-4.98c-2.22-4.35-2.54-9.36-2.57-14.16
						C481,238.58,480.48,234,479.86,229.43z"/>
					<path class="st46" d="M483.15,277.65c0.17,4.21,0.33,8.43,0.5,12.64c0.05,1.32,0.1,2.66-0.21,3.94
						c-0.31,1.28-1.03,2.53-2.19,3.17"/>
					<path class="st65" d="M465.55,207.43c-0.96-1.57-2.49-2.73-4.15-3.54c-4.72-2.28-10.71-1.63-14.83,1.61
						c-6.56,5.16-7.9,16.84,1.26,20.01c5.32,1.84,10.41,0.14,14.32-3.69C465.82,218.24,468.55,212.32,465.55,207.43z"/>
					<path class="st65" d="M541.91,206.52c4.21-0.66,8.68,0.91,11.62,4c2.94,3.08,4.3,7.58,3.64,11.79
						c-0.61,3.95-3.12,7.73-6.85,9.16c-4.05,1.56-8.76,0.12-12.17-2.55c-3.5-2.73-8.24-7.53-6.85-12.32
						C532.77,211.5,536.49,207.37,541.91,206.52z"/>
					<path class="st3" d="M531.73,211.61c0.4-0.96,0.99-1.87,1.85-2.46c0.86-0.59,2.02-0.8,2.97-0.36c0.9,0.42,1.46,1.33,1.88,2.23
						c1.2,2.57,1.66,5.48,1.34,8.29c0.79-0.32,1.6-0.65,2.45-0.67c0.85-0.02,1.76,0.32,2.18,1.06c0.79,1.39-0.51,3-1.7,4.07
						c1.56-0.04,3.16,0.23,4.5,1.03c1.34,0.8,2.38,2.18,2.53,3.73c0.19,1.96-1.1,3.89-2.88,4.75c-1.77,0.86-3.9,0.77-5.75,0.08
						c-1.84-0.69-3.43-1.93-4.85-3.3C531.34,225.3,528.96,218.22,531.73,211.61z"/>
					<path class="st3" d="M466.01,205.31c-0.4-0.96-0.99-1.87-1.85-2.46c-0.86-0.59-2.02-0.8-2.97-0.36
						c-0.9,0.42-1.46,1.33-1.88,2.23c-1.2,2.57-1.66,5.48-1.34,8.29c-0.79-0.32-1.6-0.65-2.45-0.67c-0.85-0.02-1.76,0.32-2.18,1.06
						c-0.79,1.39,0.51,3,1.7,4.07c-1.56-0.04-3.16,0.23-4.5,1.03c-1.34,0.8-2.38,2.18-2.53,3.73c-0.19,1.96,1.1,3.89,2.88,4.75
						c1.77,0.86,3.9,0.77,5.75,0.08c1.84-0.69,3.43-1.93,4.85-3.3C466.41,219,468.78,211.92,466.01,205.31z"/>
					<g>
						<path class="st66" d="M474.78,250.33c-0.74-2.04-2.02-3.89-3.76-5.01c-1.75-1.13-3.98-1.47-5.88-0.66
							c-2.58,1.1-4.12,4.05-4.65,6.97c-0.53,2.85-0.29,5.87,0.8,8.51s3.07,4.89,5.54,6.07c1.73,0.83,3.74,1.12,5.53,0.45
							c1.79-0.67,3.28-2.42,3.41-4.45"/>
						<path class="st46" d="M465.29,252.18c1.03-1.02,2.52-1.19,3.75-0.68c2.58,1.06,3.78,4.22,4.98,6.9"/>
						<path class="st46" d="M466.29,259.21c0.39-2.93,2.15-5.1,4.53-6.49"/>
					</g>
					<path class="st45" d="M468.92,239.22c-0.43,9.54-0.86,21.33,3.29,30.26c4.83,10.38,13.89,15.78,23.93,13.17
						c4.61-1.2,12.49-4.79,15.84-8.31c14.2-14.88,17.89-37.07,5.93-54.55c-0.3-0.43-0.6-0.86-0.91-1.28
						c-4.1-5.52-9.68-8.01-16.46-8.73c-5.05-0.53-11.47-0.67-16.22,1.37c-7.1,3.05-14.93,10.6-15.58,18.73
						C468.49,233,469.06,236.11,468.92,239.22z"/>
					<path class="st31" d="M474.65,243.66c-0.09,0.94-0.08,2.03,0.21,2.71c0.32,0.78,0.96,1.1,1.59,1.18
						c0.46,0.06,1.16-0.07,1.55-0.45c0.6-0.59,0.81-1.71,0.92-2.93c0.1-1.11,0.03-2.33-0.37-3.05c-0.32-0.59-0.9-0.78-1.43-0.84
						c-0.58-0.07-1.26,0.05-1.71,0.65C474.96,241.54,474.75,242.65,474.65,243.66z"/>
					<path class="st31" d="M500.04,245.26c-0.15,0.93-0.21,2.02,0.03,2.72c0.27,0.8,0.89,1.16,1.51,1.28
						c0.46,0.08,1.16,0.01,1.57-0.35c0.64-0.55,0.92-1.66,1.11-2.87c0.17-1.1,0.17-2.32-0.17-3.07c-0.28-0.61-0.85-0.84-1.37-0.93
						c-0.58-0.11-1.26-0.04-1.75,0.54C500.49,243.16,500.2,244.25,500.04,245.26z"/>
					<path class="st46" d="M488.78,240.69c0.21,2.57-0.34,6.12-2.97,7.33c-0.77,0.36-1.97,0.55-2.35,1.42
						c-0.75,1.74,1.61,3.98,2.75,5"/>
					<path class="st65" d="M499.12,233.33c-0.54,0.45-0.99,1.06-1.14,1.77c-0.15,0.71,0.03,1.53,0.57,2.02
						c0.55,0.51,1.36,0.6,2.09,0.52c0.73-0.08,1.44-0.29,2.18-0.27c1.35,0.04,2.83,0.96,4.14,0.36c1.28-0.58,1.56-1.99,0.76-3.13
						C505.92,232.05,501.4,231.42,499.12,233.33z"/>
					<path class="st65" d="M475.17,231.06c-1.22,0.39-2.33,1.63-2.43,2.94c-0.04,0.48,0.19,1,0.64,1.19
						c0.37,0.15,0.79,0.05,1.19-0.03c1.07-0.19,2.2-0.09,3.22,0.3c0.34,0.13,0.67,0.29,1.03,0.34c0.91,0.12,1.8-0.59,2.02-1.48
						c0.71-2.85-3.5-3.83-5.53-3.31C475.26,231.03,475.22,231.04,475.17,231.06z"/>
					<path class="st46" d="M482.32,281.13c1.76,0.93,3.64,1.48,5.53,1.74c7.54,1.04,14.35-1.13,20.88-6.7"/>
					<g>
						<path class="st67" d="M497.57,259.4c0.48,0.73,0.67,3.44-0.6,5.44c-2.31,3.63-7.89,5.17-11.7,2.64
							c-3.7-2.46-4.15-8.59-2.63-8.94c0.51-0.12,3.73,0.36,6.27,0.47C493.11,259.18,497.09,258.67,497.57,259.4z"/>
						<g>
							<defs>
								<path id="SVGID_7_" d="M497.57,259.4c0.48,0.73,0.67,3.44-0.6,5.44c-2.31,3.63-7.89,5.17-11.7,2.64
									c-3.7-2.46-4.15-8.59-2.63-8.94c0.51-0.12,3.73,0.36,6.27,0.47C493.11,259.18,497.09,258.67,497.57,259.4z"/>
							</defs>
							<clipPath id="SVGID_8_">
								<use xlink:href="#SVGID_7_"  style="overflow:visible;"/>
							</clipPath>
							<g class="st68">
								<path class="st69" d="M500.84,263.35c-1.32-0.75-2.82-1.08-4.31-1.14c-1.49-0.06-2.99,0.13-4.46,0.38
									c-2.58,0.44-5.19,1.08-7.37,2.57c-0.67,0.45-1.3,1-1.69,1.73s-0.51,1.65-0.14,2.39c0.43,0.86,1.39,1.28,2.29,1.51
									c1.13,0.29,2.3,0.39,3.46,0.48c2.25,0.18,4.6,0.3,6.65-0.65c0.84-0.39,1.6-0.94,2.32-1.54c1.41-1.18,2.67-2.54,3.75-4.05"/>
								<path class="st11" d="M494.05,257.93c0.12,0.37,0.23,0.75,0.26,1.14c0.03,0.39-0.03,0.8-0.24,1.12
									c-0.35,0.55-1.04,0.72-1.66,0.86c-2.35,0.51-4.63,0.73-6.97-0.03c-2.26-0.74-1.88-2.91-1.14-4.77"/>
							</g>
						</g>
					</g>
					<path class="st65" d="M528.28,235.49c-0.38-5.29-0.89-11.24-2.44-16.23c-1.7-5.5-5.26-10.5-9.51-13.74
						c-5.66-4.31-12.92-5.76-19.57-4.13c-13.3-5.5-28.38,0.48-35.44,14.52c-1.8,3.58-2.46,8.1-2.31,12.21
						c0.12,3.24,1.13,6.42,2.86,9.01c1.2,1.8,2.85,3.37,4.82,3.73c0.26,0.05,0.55,0.07,0.77-0.1c0.24-0.19,0.33-0.54,0.4-0.86
						c0.93-4.46,1.9-8.95,3.52-13.15c1.63-4.2,3.96-8.15,7.19-10.91c-0.25,2.42-0.25,4.88,0.02,7.29c0.08,0.75,0.2,1.53,0.6,2.13
						c1.04,1.6,3.32,1.13,4.77,0c2.42-1.88,3.86-4.94,5.22-7.88c1,2.5,1.26,5.94,3.55,6.86c1.61,0.65,3.46-0.53,4.3-2.22
						c0.84-1.68,0.91-3.72,0.82-5.65c3.06,3.09,6.23,6.36,7.71,10.69c0.52,1.52,0.82,3.15,1.48,4.6c0.66,1.45,1.79,2.77,3.23,2.98
						c1.43,0.2,3.03-1.18,2.81-2.8c1.69,1.82,2.45,4.46,3.09,7c0.64,2.54,1.26,5.19,2.78,7.2c1.52,2.01,4.23,3.14,6.25,1.8
						C528.73,245.48,528.57,239.5,528.28,235.49z"/>
					<path class="st65" d="M487.51,204.23c5.74-3.03,12.19-4.53,18.64-4.77c3.61-0.14,7.27,0.12,10.73,1.17
						c6.98,2.11,12.2,7.2,16.13,13.17c2.61,3.97,3.68,9.15,5.23,13.64c0.32,0.92,0.64,1.86,1.23,2.64c0.71,0.96,1.75,1.6,2.72,2.29
						c6.2,4.37,12.41,11.69,13.52,19.45c0.92,6.44-2.68,13.33-0.14,19.32c1.88,4.43,6.8,7.37,7.53,12.12
						c0.39,2.52-0.62,5.2-2.56,6.85c-1.45,1.23-3.33,1.88-4.76,3.13c-1.57,1.37-2.51,3.45-2.49,5.54c0.02,2.3,1.13,4.48,1.24,6.77
						c0.19,3.86-2.52,7.42-5.9,9.3c-3.38,1.88-7.33,2.4-11.19,2.76c-4.31,0.39-9.42,0.28-11.97-3.22c-2.11-2.88-1.57-6.9-2.89-10.22
						c-1.1-2.76-3.63-4.86-5.97-6.56c-1.84-1.33-3.74-2.96-4.13-5.2c-0.7-4.04,3.84-7.72,2.88-11.71c-0.38-1.56-1.54-2.8-2.14-4.28
						c-1.12-2.77-0.09-5.98,1.52-8.5c1.61-2.52,3.79-4.65,5.31-7.22c1.72-2.91,2.54-6.35,2.32-9.73c-0.35-5.24-3.53-9.97-3.65-15.16
						c-0.11-5.19-3.18-10.73-5.16-15.48"/>
					<path class="st70" d="M512.91,233.36c0.84-3.02,0.2-6.27-0.89-9.22c-1.62-4.38-4.24-8.39-7.6-11.64"/>
					<path class="st70" d="M497.91,219.24c0.48-4.06-0.2-8.24-1.94-11.93"/>
					<path class="st70" d="M489.21,219.15c-0.29-2.54-0.78-5.06-1.47-7.53"/>
					<path class="st70" d="M476.37,218.03c1.48-2.48,3.53-4.62,5.95-6.19"/>
					<path class="st70" d="M466.48,208.53c-2.61,3.1-5,5.82-6.47,9.69c-2.09,5.53-2.36,11.71,0.24,17.11
						c1.64,3.42,4.71,6.3,8.44,6.99"/>
					<path class="st70" d="M520.87,214.4c4.56,4.44,6.86,10.68,8.42,16.84c0.83,3.27,1.49,6.61,1.41,9.99
						c-0.08,3.37-0.96,6.8-2.97,9.51"/>
					<g>
						<path class="st45" d="M513.97,250.85c0.9-1.97,2.31-3.72,4.14-4.7c1.83-0.99,4.08-1.15,5.91-0.2c2.49,1.3,3.79,4.36,4.09,7.31
							c0.3,2.88-0.17,5.87-1.47,8.42c-1.3,2.55-3.44,4.63-5.99,5.62c-1.79,0.69-3.82,0.83-5.55,0.02c-1.73-0.81-3.08-2.67-3.06-4.7"
							/>
						<path class="st46" d="M520.65,267.3c-1.79,0.69-3.82,0.83-5.55,0.02c-1.73-0.81-3.08-2.67-3.06-4.7"/>
						<path class="st46" d="M513.97,250.85c0.9-1.97,2.31-3.72,4.14-4.7c1.83-0.99,4.08-1.15,5.91-0.2"/>
						<path class="st46" d="M523.29,253.44c-0.95-1.1-2.42-1.38-3.69-0.97c-2.65,0.86-4.1,3.91-5.51,6.49"/>
						<path class="st46" d="M521.74,260.36c-0.16-2.95-1.75-5.26-4.01-6.83"/>
					</g>
					<path class="st70" d="M553.34,297.65c-1.46-2.78,1.08-6.04,0.96-9.19c-0.11-2.95-2.49-5.22-4.53-7.36
						c-3.04-3.18-5.78-7.05-5.93-11.44c-0.12-3.29,1.23-6.44,2.03-9.63c0.8-3.2,0.93-6.93-1.22-9.43"/>
					<path class="st70" d="M536.01,252.51c0.76,3.94,0.6,8.06-0.45,11.93c-1.17,4.29-3.42,8.79-1.83,12.95
						c0.89,2.33,2.84,4.05,4.52,5.89c1.68,1.84,3.21,4.14,2.94,6.62c-0.29,2.58-2.45,4.59-2.99,7.12c-1.02,4.81,4.06,9.38,3,14.18
						c-0.62,2.84-3.21,4.78-5.75,6.18"/>
					<path class="st70" d="M458.47,244.27c-0.69,2.85-3.63,4.45-5.55,6.66c-2.36,2.72-3.21,6.68-2.16,10.12
						c0.65,2.13,1.98,4.17,1.77,6.39c-0.27,2.84-2.89,4.75-4.64,7c-0.56,0.73-1.06,1.55-1.15,2.46c-0.19,1.99,1.52,3.58,3.07,4.83
						c2.71,2.18,5.57,4.58,6.53,7.93c0.92,3.21-0.1,6.6-0.48,9.91c-0.38,3.31,0.23,7.25,3.14,8.89"/>
					<path class="st70" d="M461.64,264.36c-0.76,1.72,0.24,3.66,0.45,5.53c0.28,2.48-0.86,4.88-1.79,7.2
						c-0.94,2.32-1.69,4.97-0.69,7.26c0.59,1.35,1.72,2.38,2.59,3.57c1.61,2.19,2.35,5,2.04,7.7c-0.26,2.21-1.19,4.34-1.09,6.56
						c0.12,2.62,1.82,5.1,4.22,6.15"/>
				</g>
			</g>
			<g>
				<g>
					<path class="st71" d="M446.16,350.34c11.13,14.33,16.29,25.76,23.14,42.56c1.66,4.07,3.21,8.29,3.34,12.69
						c0.23,7.84-4.1,15.15-9.4,20.94c-15.05,16.44-50.39,36.62-50.39,36.62l-14.23-28.39l24-31.62l-18.47-35.34"/>
					<path class="st72" d="M423.95,402.49c9.91-6.48,22.27-7.78,34.11-8.17"/>
				</g>
				<g>
					<path class="st53" d="M362.86,493.07c0,0,5.56-38.76,3.48-58.76l-63.24,0.31c-12.46,51.25-12.21,104.62-11.89,157.36
						c-0.13,0,1.05,0.37,0.92,0.37h64.88L362.86,493.07z"/>
					<path class="st73" d="M308.44,434.62c-12.46,51.25-12.21,104.62-11.89,157.36"/>
					<path class="st53" d="M362.86,493.07c0,0-17.21-36.18-16.7-56.28l67.47-4.62c6.36,19.43,12.98,38.83,15.63,65.59
						c4.19,42.27,5,90.36,5,90.36l-65.44,2.32L362.86,493.07z"/>
					<path class="st73" d="M406.18,432.75c6.88,19.39,14.03,38.75,16.74,65.51c4.28,42.27,4.78,90.38,4.78,90.38"/>
					<polyline class="st73" points="361.41,508.98 363.72,489.64 365.8,476.95 					"/>
					<path class="st73" d="M391.06,444.42c5.5,10.37,13.61,18.23,25.3,19.26"/>
					<path class="st73" d="M302.93,463.14c6.49-1.08,12.38-4.77,16.79-9.66c4.41-4.88,7.42-10.9,9.45-17.16"/>
				</g>
				<g>
					<path class="st74" d="M345.71,194.48c-0.29-1.69,0.49-3.45,1.76-4.56c1.26-1.11,2.95-1.61,4.6-1.69
						c4.32-0.2,7.03,3.79,7.81,7.84"/>
					<path class="st29" d="M318.83,228.36c-5.52,13.1-15.66,27.36-18.47,33.42c-1.38,2.97-2.45,6.24-1.06,9.44
						c2.66,6.14,12.6,6.61,18.03,6.4c9.14-0.36,15.41-0.57,24.44-2.67c9.96-2.31,19.3-8.04,25.02-16.91
						c6.67-10.34,8.15-23.58,10.85-35.4c0.11-0.49,0.23-0.98,0.34-1.47"/>
					<g>
						<path class="st75" d="M325.63,256.84c-0.97-1.94-2.39-3.65-4.11-4.61c-1.73-0.96-3.77-1.11-5.35-0.16
							c-2.14,1.29-3.07,4.31-3.11,7.22c-0.04,2.84,0.62,5.78,2,8.29c1.38,2.5,3.48,4.54,5.86,5.5c1.67,0.67,3.51,0.79,5.01-0.02
							c1.5-0.81,2.56-2.65,2.38-4.65"/>
						<path class="st72" d="M317.43,259.44c0.77-1.09,2.07-1.37,3.25-0.98c2.46,0.83,4.01,3.82,5.49,6.36"/>
						<path class="st72" d="M319.38,266.25c-0.09-2.91,1.15-5.19,3.07-6.74"/>
					</g>
					<g>
						<path class="st75" d="M382.25,255.15c0.97-1.94,2.39-3.65,4.11-4.61c1.73-0.96,3.77-1.11,5.35-0.16
							c2.14,1.29,3.07,4.31,3.11,7.22c0.04,2.84-0.62,5.78-2,8.29c-1.38,2.5-3.48,4.54-5.86,5.5c-1.67,0.67-3.51,0.79-5.01-0.02
							c-1.5-0.81-2.56-2.65-2.38-4.65"/>
						<path class="st72" d="M390.45,257.75c-0.77-1.09-2.07-1.37-3.25-0.98c-2.46,0.83-4.01,3.82-5.49,6.36"/>
						<path class="st72" d="M388.5,264.56c0.09-2.91-1.15-5.19-3.07-6.75"/>
					</g>
					<path class="st71" d="M377.43,270.39l-43.76,8.71c0,0,0.37,14.05-2.52,20.3c5.13,9.59,13.44,17.24,22.85,22.7
						c0.96,0.56,2.03,1.1,3.12,0.9c0.85-0.15,1.54-0.74,2.2-1.3c7.8-6.76,15.09-14.11,21.78-21.97
						C379.23,289.94,378,280.34,377.43,270.39z"/>
					<path class="st71" d="M329.27,216.26c-1.48,2.12-2.86,4.33-3.89,6.73c-4.03,9.43-1.85,24.11-1.05,34.18
						c0.72,9.09,0.25,14.63,6.18,21.79c4.8,5.8,11.57,9.86,18.85,11.23c10.1,1.9,21.97-0.43,28.9-8.1
						c5.84-6.46,7.58-12.54,7.74-22.27c0.14-8.37,1.2-18.52-0.19-26.35c-1.48-8.36-4.19-16.74-10.39-22.53
						c-7.42-6.93-18.14-10.5-27.94-8.34C339.94,204.27,333.75,209.86,329.27,216.26z"/>
					<path class="st72" d="M354.89,251.43c0.32,1.65-0.33,3.46-1.62,4.5c-0.38,0.31-0.83,0.56-1.1,0.98
						c-0.26,0.39-0.33,0.89-0.32,1.36c0.05,2.06,1.54,3.58,3.08,4.66"/>
					<path class="st72" d="M341.26,287.39c5.05,2.91,10.99,4.24,16.8,3.77c5.81-0.47,11.46-2.74,15.98-6.42"/>
					<path class="st60" d="M329.92,239.6c0.07-0.03,0.14-0.07,0.2-0.11c1.7-0.97,2.54-2.95,3.42-4.74
						c2.54-5.15,6.81-9.95,12.36-10.73c2.91-0.41,5.6,0.4,8.35,1.24c2.53,0.77,3.67,1.8,5.61,3.69c2.06,1.99,4.36,3.78,7.01,4.78
						c1.38,0.52,3.11,0.73,4.15-0.34c0.3-0.31,0.58-0.74,1-0.74c0.2,0,0.38,0.1,0.54,0.21c1.34,0.87,2.24,2.29,3.16,3.62
						c2.24,3.24,5.91,5.48,8.48,1.6c2.23,2.83,1.84,10.78,2.05,14.35c1.3-0.44,4.61-1.54,6.09-6.61c2.25-7.67,1.23-15.67-2.59-23.1
						c-2.58-5.02-6.65-9.13-10.7-12.9c-4.02-3.74-8.41-7.25-13.57-9.12c-5.26-1.91-12.03-3.28-17.43-1.84
						c-4.33,1.15-8.68,2.31-12.77,4.16c-4.09,1.85-7.96,4.43-10.76,8.03c-2.3,2.95-3.81,6.46-5.29,9.92c-1.03,2.4-2.05,4.8-3.08,7.2
						c-0.53,1.24-1.06,2.48-1.35,3.8c-0.79,3.57,0.23,7.36-0.42,10.96c-0.19,1.04-0.51,2.05-0.53,3.11
						c-0.04,2.58,1.74,4.79,3.66,6.44c1.47,1.27,5.09,3.81,6.81,4.71c-0.03-2.56-1.03-14.87-0.1-17.93
						C326.03,240.06,328.17,240.48,329.92,239.6z"/>
					<path class="st76" d="M324.44,239.58c-1.53-2.44-1.97-5.47-1.76-8.37c0.21-2.9,1.03-5.71,1.84-8.49"/>
					<path class="st76" d="M371.71,233.19c1.18-6.16-0.45-13-4.17-17.44"/>
					<path class="st76" d="M383.82,238.67c1.18-3.59,0.84-7.59-0.48-11.13c-1.31-3.54-3.54-6.65-6.09-9.38"/>
					<path class="st77" d="M392.14,220.69c-3.25-12.08-11.03-20.47-20.72-24.89c-9.03-4.12-19.71-4.79-29.93-1.77
						c-12.41,3.66-23.7,12.89-26.72,26.55c-1.32,6-1.52,12.19-1.71,18.34c24.88-12.61,54.43-14.73,80.71-5.79
						C393.78,228.93,393.23,224.73,392.14,220.69z M341.2,221.72c0.06-1.63,0.13-3.27,0.56-4.85c0.98-3.61,4.67-6.05,8.72-7.02
						c3.34-0.8,6.82-0.62,9.77,0.47c3.16,1.17,5.7,3.39,6.76,6.58c0.35,1.07,0.53,2.18,0.53,3.29
						C358.96,217.82,349.32,218.38,341.2,221.72z"/>
					<path class="st60" d="M373.86,241.83c1.21-3.36-4.61-3.41-6.23-3c-1.12,0.28-2.23,0.71-3.11,1.47
						c-0.84,0.71-0.85,2.29-0.3,3.21c1.23,2.06,4.91,0.54,6.61,0.18C372.04,243.43,373.43,243.02,373.86,241.83z"/>
					<path class="st60" d="M334.98,240.87c-1.21-3.36,4.61-3.41,6.23-3c1.12,0.28,2.23,0.71,3.11,1.47c0.84,0.71,0.85,2.29,0.3,3.21
						c-1.23,2.06-4.91,0.54-6.61,0.18C336.81,242.48,335.41,242.06,334.98,240.87z"/>
					<path class="st78" d="M368.19,248.38c-1.02,1.58-1.18,6.14,1.03,6.79c0.73,0.22,1.59-0.07,2.04-0.71
						c0.9-1.31,0.96-4.5,0.27-5.94C370.96,247.37,368.86,247.33,368.19,248.38z"/>
					<path class="st78" d="M339.04,248.38c-1.02,1.58-1.18,6.14,1.03,6.79c0.73,0.22,1.59-0.07,2.04-0.71
						c0.9-1.31,0.96-4.5,0.27-5.94C341.82,247.37,339.71,247.33,339.04,248.38z"/>
					<path class="st79" d="M313.53,231.24c7.12-6.37,16.9-8.7,25.98-10.13c18.04-2.85,36.03-2.24,53.81,3.54"/>
					<path class="st79" d="M354.98,191.41c6.29,1.47,12.04,6.35,16.01,11.59c3.98,5.24,6.44,11.59,7.77,18.1"/>
					<path class="st79" d="M347.27,192.06c-6.64,2.1-13.86,7.52-17.8,13.43c-3.94,5.91-5.89,13.21-5.43,20.37"/>
					<g>
						<path class="st67" d="M362.95,266.52c0.59,0.76,1.07,3.77-0.1,6.14c-2.13,4.3-8.01,6.6-12.39,4.17
							c-4.25-2.36-5.36-9.16-3.75-9.71c0.54-0.18,4.07,0.01,6.83-0.14C358.11,266.74,362.36,265.76,362.95,266.52z"/>
						<g>
							<defs>
								<path id="SVGID_9_" d="M362.95,266.52c0.59,0.76,1.07,3.77-0.1,6.14c-2.13,4.3-8.01,6.6-12.39,4.17
									c-4.25-2.36-5.36-9.16-3.75-9.71c0.54-0.18,4.07,0.01,6.83-0.14C358.11,266.74,362.36,265.76,362.95,266.52z"/>
							</defs>
							<clipPath id="SVGID_10_">
								<use xlink:href="#SVGID_9_"  style="overflow:visible;"/>
							</clipPath>
							<g class="st80">
								<path class="st69" d="M366.59,274.76c-1.22-1.14-2.73-1.87-4.3-2.31c-1.57-0.44-3.2-0.59-4.82-0.68
									c-2.83-0.15-5.75-0.09-8.42,1.01c-0.81,0.33-1.62,0.78-2.2,1.48c-0.59,0.7-0.93,1.68-0.71,2.58
									c0.25,1.05,1.17,1.74,2.07,2.21c1.13,0.59,2.34,0.99,3.55,1.38c2.34,0.74,4.8,1.45,7.21,0.91c0.99-0.22,1.92-0.64,2.83-1.12
									c1.77-0.94,3.43-2.13,4.93-3.52"/>
								<path class="st11" d="M359.98,265.53c0.14,0.41,0.28,0.83,0.33,1.27c0.05,0.44,0,0.9-0.21,1.27
									c-0.36,0.63-1.1,0.85-1.76,1.03c-2.53,0.67-5,1.01-7.57,0.25c-2.48-0.73-2.16-3.18-1.43-5.3"/>
							</g>
						</g>
					</g>
				</g>
				<g>
					<path class="st29" d="M332.76,302.31c0,0,9.93,14.35,24.25,13.34c14.33-1.01,22.69-11.09,22.69-11.09l32.09,12.88l-8.28,116.87
						l-92.88,5.28L290.83,331L332.76,302.31z"/>
					<path class="st17" d="M355.86,343.26c0.7-11.56,4.88-23.53,5.97-35.06l29.24,4.31l28.02,23.08c0.4,25.64-2.75,58.38-8.66,83.34
						c-1.22,5.15-2.7,10.57-1.19,15.64c0.7,2.35,2.04,4.66,1.65,7.08c-0.34,2.09-1.95,3.8-3.83,4.77c-1.88,0.97-4.01,1.32-6.1,1.63
						c-16.36,2.37-32.91,3.5-49.32,1.52C358.24,414.49,353.68,378.9,355.86,343.26z"/>
					<path class="st17" d="M357.01,341.8c-0.7-11.56-5.89-22.08-6.98-33.6c0,0-14.3-2.97-26.73,2.98
						c-15.79,7.55-30.53,24.41-30.53,24.41c-0.27,17.04,0.88,34.14,3,51.04c2,15.98,8.33,33.7,3.52,49.63
						c-0.41,1.36-0.9,2.74-0.78,4.15c0.19,2.21,1.89,4.07,3.88,5.06c7.54,3.78,17.66,3.9,25.9,4.53
						c10.63,0.81,21.35,0.84,31.94-0.44C353.62,414.49,359.19,377.44,357.01,341.8z"/>
					<path class="st25" d="M342.2,311.8c2.21,9.73,4.42,19.47,5.8,29.35c1.78,12.78,2.17,25.71,2.37,38.61
						c0.24,15.35,1.25,54.47,1.25,69.81"/>
					<path class="st71" d="M310.46,408.6c1.36-14.01,2.84-22.85,2.84-22.85s-19.66,0.88-44.96-6.89c-0.51,2.76-1.01,5.53-1.52,8.29
						c-1.78,9.75-3.57,19.64-2.66,29.51c2.07,22.39,20.94,30.17,40.67,34.52c10.48,2.31,23.35,5.94,34.05,6.72
						c5.06-8.46,8.44-17.13,11.45-26.51C338.55,423.79,322.25,416.2,310.46,408.6z"/>
					<path class="st72" d="M285.1,409.71c8.17-2.32,16.84-4.23,25.07-2.16"/>
					<path class="st17" d="M327.66,300.53c-7.48,2.55-15.32,3.88-22.86,6.25c-7.54,2.38-14.98,5.99-20,12.09
						c-5.43,6.61-7.35,15.09-9.55,23.14c-3.31,12.11-6.41,24.28-9.57,36.43c16.34,8.35,37.18,8.23,55.54,6.8l6.45-37.19"/>
					<path class="st25" d="M304.36,344.77c1.19,2.03,3.05,3.94,3.95,6.18c0.97,2.4,2.34,22.14,3.15,28.87"/>
					<path class="st25" d="M356.71,335.88c0,0,2.42,14.79,2.42,21.99c0,5.17,2.29,91.86,2.29,91.86"/>
					<path class="st17" d="M382.15,301.39c12.86,2.79,27.66,2.92,38.74,10.51c4.32,2.96,23.43,29.62,35.42,46.84
						c-12.79,12.32-34.07,25.37-50.65,30.08c-5.93-10-10.56-22.56-16.49-32.56"/>
					<path class="st25" d="M413.12,371.62c12.13-6.24,27.72-17.91,33.97-25.14"/>
					<path class="st25" d="M420.89,347.71c-1.51,2.03-3.88,3.94-5.03,6.18c-1.23,2.4-2.97,22.14-4.01,28.87"/>
					<path class="st81" d="M331.26,293.2l-10.7,10.52c5.38,7.74,10.97,14.83,17.54,21.06c2.99-6.76,7.37-12.46,12.34-17.16
						C343.69,303.64,337.25,298.79,331.26,293.2z"/>
					<path class="st81" d="M380.59,293.2l10.7,10.52c-5.38,7.74-10.97,14.83-17.54,21.06c-2.99-6.76-7.37-12.46-12.34-17.16
						C368.16,303.64,374.6,298.79,380.59,293.2z"/>
					<path class="st25" d="M269.09,365.24c12.89,4.05,28.08,6.21,41.56,6.38"/>
					<circle class="st82" cx="352.48" cy="339.12" r="2.04"/>
					<circle class="st82" cx="354.52" cy="365.86" r="2.04"/>
					<circle class="st82" cx="355.86" cy="400.45" r="2.04"/>
					<circle class="st82" cx="357.19" cy="435.03" r="2.04"/>
					<g>
						<path class="st11" d="M420.5,450.11H315.99l-12.52-62.2c-0.7-3.47,2.05-6.69,5.71-6.69h118.13c3.66,0,6.41,3.22,5.71,6.69
							L420.5,450.11z"/>
						<path class="st83" d="M303.48,385.76c0.52-2.54,2.83-4.54,5.7-4.54h118.13c2.88,0,5.19,2,5.7,4.54l0.01-0.04
							c0.7-3.59-2.05-6.93-5.71-6.93H309.18c-3.66,0-6.41,3.34-5.71,6.93L303.48,385.76z"/>
						<ellipse class="st83" cx="368.25" cy="414.38" rx="9.12" ry="5.63"/>
					</g>
					<g>
						<path class="st71" d="M356.88,456.2c2.57-4.01,5.14-8.03,7.72-12.04c0.92-1.43,2.53-3.08,4.05-3.65
							c1.52-0.56,3.02,0.58,3.01,2.32c1.79-2.97,4-4.54,6.41-4.13c1.63,0.27,1.08,2.88,1.22,4.65c1.3-1.51,2.82-1.81,3.81-0.75
							c0.99,1.05,0.98,2.62,0.86,4.38c1.33-1.26,2.59-1.88,3.38-0.6c0.79,1.28,0.54,3.44,0.28,4.95c-0.38,2.21-0.77,4.44-1.5,6.54
							c-0.46,1.32-1.1,2.84-2.34,3.45c-0.31,0.15-2.32,0.89-3.72,0.02c-0.31,1.02-1.32,1.64-2.32,1.74
							c-0.99,0.1-1.97-0.23-2.91-0.57c-0.21-0.08-0.44-0.16-0.66-0.09c-0.19,0.06-0.34,0.22-0.49,0.38
							c-0.51,0.57-1.05,1.12-1.72,1.46c-1.68,0.86-3.65,0.13-5.39-0.59c-0.28-0.12-0.58-0.23-0.88-0.17
							c-0.23,0.05-0.42,0.2-0.61,0.34c-3.89,2.82-8.66,1.31-12.78-0.07c-6.03-2.01-11.92-4.48-17.8-6.94
							c2.51-4.06,3.81-7.72,8.68-9.27c4.58-1.46,9.72-0.97,13.9,1.44c2.1,1.21,4.03,2.89,6.34,3.51c0.96,0.26,1.96,0.32,2.9,0.64
							c1.93,0.65,6.05,6.13,2.77,7.37c-2.02,0.76-6.34-1.04-8.49-1.35c-3.25-0.47-6.51-0.81-9.78-1.02"/>
						<path class="st72" d="M359.67,450.48c1.35,0.89,2.81,1.72,4.3,2.29c1.38,0.53,2.87,1.37,3.62,2.7
							c0.48,0.86,0.74,2.09,0.64,3.07c-0.1,1.02-0.8,1.43-1.75,1.56c-1.75,0.23-3.5-0.22-5.21-0.62c-3.61-0.85-7.27-1.51-10.95-1.96
							"/>
						<path class="st72" d="M365.07,463.68c3.05-2.61,4.6-6.58,5.46-10.51c0.76-3.47,1.07-7.05,0.93-10.6"/>
						<path class="st72" d="M373.67,462.42c3.14-6.2,4.97-13.06,5.34-20"/>
						<path class="st72" d="M379.53,462.27c3.29-4.62,5.03-10.31,4.88-15.98"/>
					</g>
				</g>
			</g>
		</g>
	</g>
	<g>
		<g>
			<line class="st84" x1="645.17" y1="121.73" x2="645.17" y2="128.16"/>
			<line class="st84" x1="645.17" y1="139.14" x2="645.17" y2="145.57"/>
			<line class="st84" x1="634.84" y1="127.69" x2="640.41" y2="130.91"/>
			<line class="st84" x1="649.92" y1="136.4" x2="655.49" y2="139.61"/>
			<line class="st84" x1="655.49" y1="127.69" x2="649.92" y2="130.91"/>
			<line class="st84" x1="640.41" y1="136.4" x2="634.84" y2="139.61"/>
		</g>
		<g>
			<line class="st84" x1="300.05" y1="164.87" x2="300.05" y2="169.61"/>
			<line class="st84" x1="300.05" y1="177.71" x2="300.05" y2="182.46"/>
			<line class="st84" x1="292.44" y1="169.27" x2="296.54" y2="171.64"/>
			<line class="st84" x1="303.56" y1="175.69" x2="307.67" y2="178.06"/>
			<line class="st84" x1="307.67" y1="169.27" x2="303.56" y2="171.64"/>
			<line class="st84" x1="296.54" y1="175.69" x2="292.44" y2="178.06"/>
		</g>
		<g>
			<line class="st84" x1="733.54" y1="260.77" x2="733.54" y2="265.52"/>
			<line class="st84" x1="733.54" y1="273.62" x2="733.54" y2="278.36"/>
			<line class="st84" x1="725.92" y1="265.17" x2="730.03" y2="267.54"/>
			<line class="st84" x1="737.05" y1="271.59" x2="741.16" y2="273.97"/>
			<line class="st84" x1="741.16" y1="265.17" x2="737.05" y2="267.54"/>
			<line class="st84" x1="730.03" y1="271.59" x2="725.92" y2="273.97"/>
		</g>
		<g>
			<line class="st84" x1="220.42" y1="53.34" x2="220.42" y2="58.08"/>
			<line class="st84" x1="220.42" y1="66.18" x2="220.42" y2="70.93"/>
			<line class="st84" x1="212.8" y1="57.74" x2="216.91" y2="60.11"/>
			<line class="st84" x1="223.93" y1="64.16" x2="228.03" y2="66.53"/>
			<line class="st84" x1="228.03" y1="57.74" x2="223.93" y2="60.11"/>
			<line class="st84" x1="216.91" y1="64.16" x2="212.8" y2="66.53"/>
		</g>
		<g>
			<line class="st84" x1="592.28" y1="198.74" x2="592.28" y2="203.48"/>
			<line class="st84" x1="592.28" y1="211.59" x2="592.28" y2="216.33"/>
			<line class="st84" x1="584.66" y1="203.14" x2="588.77" y2="205.51"/>
			<line class="st84" x1="595.79" y1="209.56" x2="599.9" y2="211.93"/>
			<line class="st84" x1="599.9" y1="203.14" x2="595.79" y2="205.51"/>
			<line class="st84" x1="588.77" y1="209.56" x2="584.66" y2="211.93"/>
		</g>
		<g>
			<line class="st84" x1="38.52" y1="211.75" x2="38.52" y2="216.5"/>
			<line class="st84" x1="38.52" y1="224.6" x2="38.52" y2="229.34"/>
			<line class="st84" x1="30.9" y1="216.15" x2="35.01" y2="218.52"/>
			<line class="st84" x1="42.03" y1="222.57" x2="46.14" y2="224.94"/>
			<line class="st84" x1="46.14" y1="216.15" x2="42.03" y2="218.52"/>
			<line class="st84" x1="35.01" y1="222.57" x2="30.9" y2="224.94"/>
		</g>
		<g>
			<line class="st84" x1="60.9" y1="262.91" x2="60.9" y2="265.83"/>
			<line class="st84" x1="60.9" y1="270.81" x2="60.9" y2="273.73"/>
			<line class="st84" x1="56.21" y1="265.62" x2="58.74" y2="267.08"/>
			<line class="st84" x1="63.06" y1="269.57" x2="65.58" y2="271.03"/>
			<line class="st84" x1="65.58" y1="265.62" x2="63.06" y2="267.08"/>
			<line class="st84" x1="58.74" y1="269.57" x2="56.21" y2="271.03"/>
		</g>
		<g>
			<line class="st84" x1="675.62" y1="110.97" x2="675.62" y2="113.89"/>
			<line class="st84" x1="675.62" y1="118.87" x2="675.62" y2="121.79"/>
			<line class="st84" x1="670.94" y1="113.67" x2="673.47" y2="115.13"/>
			<line class="st84" x1="677.78" y1="117.62" x2="680.31" y2="119.08"/>
			<line class="st84" x1="680.31" y1="113.67" x2="677.78" y2="115.13"/>
			<line class="st84" x1="673.47" y1="117.62" x2="670.94" y2="119.08"/>
		</g>
		<g>
			<line class="st84" x1="149.24" y1="156.23" x2="149.24" y2="159.15"/>
			<line class="st84" x1="149.24" y1="164.13" x2="149.24" y2="167.05"/>
			<line class="st84" x1="144.55" y1="158.93" x2="147.08" y2="160.39"/>
			<line class="st84" x1="151.4" y1="162.88" x2="153.92" y2="164.34"/>
			<line class="st84" x1="153.92" y1="158.93" x2="151.4" y2="160.39"/>
			<line class="st84" x1="147.08" y1="162.88" x2="144.55" y2="164.34"/>
		</g>
		<g>
			<line class="st84" x1="406.71" y1="68.34" x2="406.71" y2="71.26"/>
			<line class="st84" x1="406.71" y1="76.25" x2="406.71" y2="79.16"/>
			<line class="st84" x1="402.03" y1="71.05" x2="404.55" y2="72.51"/>
			<line class="st84" x1="408.87" y1="75" x2="411.4" y2="76.46"/>
			<line class="st84" x1="411.4" y1="71.05" x2="408.87" y2="72.51"/>
			<line class="st84" x1="404.55" y1="75" x2="402.03" y2="76.46"/>
		</g>
		<g>
			<line class="st84" x1="510.93" y1="117.64" x2="510.93" y2="124.8"/>
			<line class="st84" x1="510.93" y1="137.01" x2="510.93" y2="144.17"/>
			<line class="st84" x1="499.45" y1="124.27" x2="505.64" y2="127.85"/>
			<line class="st84" x1="516.22" y1="133.96" x2="522.42" y2="137.54"/>
			<line class="st84" x1="522.42" y1="124.27" x2="516.22" y2="127.85"/>
			<line class="st84" x1="505.64" y1="133.96" x2="499.45" y2="137.54"/>
		</g>
	</g>
</g>
</svg>
