<svg width="423" height="450" viewBox="0 0 423 450" fill="none" xmlns="http://www.w3.org/2000/svg">
<circle cx="103" cy="156" r="27" fill="white"/>
<circle cx="319" cy="156" r="27" fill="white"/>
<circle cx="211" cy="48" r="27" fill="white"/>
<rect x="157" y="118" width="108" height="33" rx="6" fill="white"/>
<path d="M173.437 24C174.238 24 174.718 24.8981 174.3 25.5812C170.304 32.1091 168 39.7854 168 48C168 56.2146 170.304 63.8909 174.3 70.4188C174.718 71.1019 174.238 72 173.437 72H151C137.745 72 127 82.7452 127 96V118.436C127 119.237 126.102 119.718 125.419 119.299C118.891 115.303 111.214 113 103 113C94.7856 113 87.1091 115.303 80.5812 119.299C79.8981 119.718 79 119.237 79 118.436V84C79 50.8629 105.863 24 139 24H173.437Z" fill="white"/>
<path d="M283 24C316.137 24 343 50.8629 343 84V118.436C343 119.237 342.102 119.718 341.419 119.299C334.891 115.303 327.214 113 319 113C310.786 113 303.109 115.303 296.581 119.299C295.898 119.718 295 119.237 295 118.436V96C295 82.7452 284.255 72 271 72H248.563C247.762 72 247.282 71.1019 247.7 70.4188C251.696 63.8909 254 56.2146 254 48C254 39.7854 251.696 32.1091 247.7 25.5812C247.282 24.8981 247.762 24 248.563 24H283Z" fill="white"/>
<path d="M259 161C262.314 161 265 163.686 265 167V188C265 191.314 262.314 194 259 194H243C238.582 194 235 197.582 235 202V239.966C235 239.985 234.985 240 234.966 240V240C234.949 240 234.934 240.014 234.933 240.032C233.622 266.575 211.817 287.726 185.012 287.992C185.009 287.992 185.006 287.994 185.003 287.996V287.996C185.001 287.999 184.998 288 184.995 288H139C105.863 288 79 261.137 79 228V193.563C79 192.762 79.8981 192.282 80.5812 192.7C87.1091 196.696 94.7854 199 103 199C111.215 199 118.891 196.696 125.419 192.7C126.102 192.282 127 192.762 127 193.563V216C127 229.255 137.745 240 151 240H161.989C161.995 240 162 239.995 162 239.989V239.989C162 239.983 162.005 239.978 162.011 239.978C162.339 239.991 162.669 240 163 240C176.255 240 187 229.255 187 216C187 215.669 186.991 215.339 186.978 215.011C186.978 215.005 186.983 215 186.989 215V215C186.995 215 187 214.995 187 214.989V202C187 197.582 183.418 194 179 194H163C159.686 194 157 191.314 157 188V167C157 163.686 159.686 161 163 161H259Z" fill="white"/>
<path d="M343 228C343 261.137 316.137 288 283 288H241.553C240.682 288 240.221 286.957 240.793 286.299C249.129 276.69 255.047 264.926 257.597 251.953C258.892 245.365 264.286 240 271 240V240C284.255 240 295 229.255 295 216V193.563C295 192.762 295.898 192.282 296.581 192.7C303.109 196.696 310.785 199 319 199C327.215 199 334.891 196.696 341.419 192.7C342.102 192.282 343 192.762 343 193.563V228Z" fill="white"/>
<path d="M43.9255 379V346.22H57.7855C60.0442 346.22 61.9802 346.601 63.5935 347.364C65.2068 348.127 66.4388 349.227 67.2895 350.664C68.1402 352.072 68.5655 353.788 68.5655 355.812C68.5655 357.249 68.1695 358.628 67.3775 359.948C66.5855 361.239 65.2802 362.324 63.4615 363.204V359.86C65.1922 360.535 66.5268 361.341 67.4655 362.28C68.4042 363.219 69.0495 364.245 69.4015 365.36C69.7535 366.445 69.9295 367.589 69.9295 368.792C69.9295 372.019 68.8588 374.527 66.7175 376.316C64.5762 378.105 61.5988 379 57.7855 379H43.9255ZM50.7455 373.06H58.5775C59.9562 373.06 61.0562 372.664 61.8775 371.872C62.6988 371.08 63.1095 370.053 63.1095 368.792C63.1095 367.501 62.6988 366.46 61.8775 365.668C61.0562 364.876 59.9562 364.48 58.5775 364.48H50.7455V373.06ZM50.7455 358.54H58.2695C59.3255 358.54 60.1615 358.247 60.7775 357.66C61.4228 357.044 61.7455 356.237 61.7455 355.24C61.7455 354.243 61.4228 353.451 60.7775 352.864C60.1615 352.248 59.3255 351.94 58.2695 351.94H50.7455V358.54ZM73.8204 379V354.976H79.9804V360.74L79.5404 359.904C80.0684 357.88 80.9337 356.516 82.1364 355.812C83.3684 355.079 84.8204 354.712 86.4924 354.712H87.9004V360.432H85.8324C84.2191 360.432 82.9137 360.931 81.9164 361.928C80.9191 362.896 80.4204 364.275 80.4204 366.064V379H73.8204ZM90.793 379V354.976H97.393V379H90.793ZM90.793 352.82V346.22H97.393V352.82H90.793ZM102.223 379V354.976H108.383V359.728L108.031 358.672C108.588 357.235 109.483 356.179 110.715 355.504C111.976 354.8 113.443 354.448 115.115 354.448C116.933 354.448 118.517 354.829 119.867 355.592C121.245 356.355 122.316 357.425 123.079 358.804C123.841 360.153 124.223 361.737 124.223 363.556V379H117.623V364.964C117.623 364.025 117.432 363.219 117.051 362.544C116.699 361.869 116.185 361.341 115.511 360.96C114.865 360.579 114.103 360.388 113.223 360.388C112.372 360.388 111.609 360.579 110.935 360.96C110.26 361.341 109.732 361.869 109.351 362.544C108.999 363.219 108.823 364.025 108.823 364.964V379H102.223ZM140.355 388.68C138.507 388.68 136.791 388.372 135.207 387.756C133.623 387.14 132.259 386.275 131.115 385.16C130 384.075 129.193 382.784 128.695 381.288L134.811 379.132C135.133 380.247 135.793 381.127 136.791 381.772C137.788 382.417 138.976 382.74 140.355 382.74C141.44 382.74 142.379 382.535 143.171 382.124C143.963 381.743 144.564 381.171 144.975 380.408C145.415 379.645 145.635 378.751 145.635 377.724V372.224L146.911 373.808C146.089 375.157 145.033 376.169 143.743 376.844C142.452 377.489 140.941 377.812 139.211 377.812C136.981 377.812 134.987 377.313 133.227 376.316C131.467 375.289 130.088 373.896 129.091 372.136C128.093 370.347 127.595 368.323 127.595 366.064C127.595 363.805 128.093 361.811 129.091 360.08C130.088 358.32 131.452 356.941 133.183 355.944C134.913 354.947 136.879 354.448 139.079 354.448C140.809 354.448 142.32 354.8 143.611 355.504C144.901 356.179 146.001 357.22 146.911 358.628L146.075 360.212V354.976H152.235V377.724C152.235 379.836 151.721 381.713 150.695 383.356C149.668 385.028 148.26 386.333 146.471 387.272C144.711 388.211 142.672 388.68 140.355 388.68ZM140.135 371.828C141.249 371.828 142.217 371.593 143.039 371.124C143.86 370.655 144.491 369.995 144.931 369.144C145.4 368.293 145.635 367.296 145.635 366.152C145.635 365.008 145.4 364.011 144.931 363.16C144.461 362.28 143.816 361.605 142.995 361.136C142.173 360.637 141.22 360.388 140.135 360.388C139.02 360.388 138.023 360.637 137.143 361.136C136.292 361.605 135.617 362.28 135.119 363.16C134.649 364.011 134.415 365.008 134.415 366.152C134.415 367.267 134.649 368.249 135.119 369.1C135.617 369.951 136.292 370.625 137.143 371.124C138.023 371.593 139.02 371.828 140.135 371.828ZM157.094 379V354.976H163.694V379H157.094ZM157.094 352.82V346.22H163.694V352.82H157.094ZM168.524 379V354.976H174.684V359.728L174.332 358.672C174.889 357.235 175.784 356.179 177.016 355.504C178.277 354.8 179.744 354.448 181.416 354.448C183.234 354.448 184.818 354.829 186.168 355.592C187.546 356.355 188.617 357.425 189.38 358.804C190.142 360.153 190.524 361.737 190.524 363.556V379H183.924V364.964C183.924 364.025 183.733 363.219 183.352 362.544C183 361.869 182.486 361.341 181.812 360.96C181.166 360.579 180.404 360.388 179.524 360.388C178.673 360.388 177.91 360.579 177.236 360.96C176.561 361.341 176.033 361.869 175.652 362.544C175.3 363.219 175.124 364.025 175.124 364.964V379H168.524ZM206.655 388.68C204.807 388.68 203.091 388.372 201.507 387.756C199.923 387.14 198.559 386.275 197.415 385.16C196.301 384.075 195.494 382.784 194.995 381.288L201.111 379.132C201.434 380.247 202.094 381.127 203.091 381.772C204.089 382.417 205.277 382.74 206.655 382.74C207.741 382.74 208.679 382.535 209.471 382.124C210.263 381.743 210.865 381.171 211.275 380.408C211.715 379.645 211.935 378.751 211.935 377.724V372.224L213.211 373.808C212.39 375.157 211.334 376.169 210.043 376.844C208.753 377.489 207.242 377.812 205.511 377.812C203.282 377.812 201.287 377.313 199.527 376.316C197.767 375.289 196.389 373.896 195.391 372.136C194.394 370.347 193.895 368.323 193.895 366.064C193.895 363.805 194.394 361.811 195.391 360.08C196.389 358.32 197.753 356.941 199.483 355.944C201.214 354.947 203.179 354.448 205.379 354.448C207.11 354.448 208.621 354.8 209.911 355.504C211.202 356.179 212.302 357.22 213.211 358.628L212.375 360.212V354.976H218.535V377.724C218.535 379.836 218.022 381.713 216.995 383.356C215.969 385.028 214.561 386.333 212.771 387.272C211.011 388.211 208.973 388.68 206.655 388.68ZM206.435 371.828C207.55 371.828 208.518 371.593 209.339 371.124C210.161 370.655 210.791 369.995 211.231 369.144C211.701 368.293 211.935 367.296 211.935 366.152C211.935 365.008 211.701 364.011 211.231 363.16C210.762 362.28 210.117 361.605 209.295 361.136C208.474 360.637 207.521 360.388 206.435 360.388C205.321 360.388 204.323 360.637 203.443 361.136C202.593 361.605 201.918 362.28 201.419 363.16C200.95 364.011 200.715 365.008 200.715 366.152C200.715 367.267 200.95 368.249 201.419 369.1C201.918 369.951 202.593 370.625 203.443 371.124C204.323 371.593 205.321 371.828 206.435 371.828ZM231.301 387.8V354.976H237.461V359.552L236.889 358.232C237.681 357.029 238.752 356.105 240.101 355.46C241.48 354.785 243.049 354.448 244.809 354.448C247.097 354.448 249.165 355.005 251.013 356.12C252.861 357.235 254.328 358.745 255.413 360.652C256.498 362.529 257.041 364.641 257.041 366.988C257.041 369.305 256.498 371.417 255.413 373.324C254.357 375.231 252.905 376.741 251.057 377.856C249.209 378.971 247.112 379.528 244.765 379.528C243.122 379.528 241.597 379.235 240.189 378.648C238.81 378.032 237.696 377.137 236.845 375.964L237.901 374.6V387.8H231.301ZM243.973 373.588C245.205 373.588 246.29 373.309 247.229 372.752C248.168 372.195 248.901 371.417 249.429 370.42C249.957 369.423 250.221 368.279 250.221 366.988C250.221 365.697 249.957 364.568 249.429 363.6C248.901 362.603 248.168 361.825 247.229 361.268C246.29 360.681 245.205 360.388 243.973 360.388C242.8 360.388 241.744 360.667 240.805 361.224C239.896 361.781 239.177 362.559 238.649 363.556C238.15 364.553 237.901 365.697 237.901 366.988C237.901 368.279 238.15 369.423 238.649 370.42C239.177 371.417 239.896 372.195 240.805 372.752C241.744 373.309 242.8 373.588 243.973 373.588ZM272.478 379.528C269.926 379.528 267.712 378.971 265.834 377.856C263.957 376.712 262.505 375.187 261.478 373.28C260.452 371.373 259.938 369.261 259.938 366.944C259.938 364.539 260.466 362.397 261.522 360.52C262.608 358.643 264.06 357.161 265.878 356.076C267.697 354.991 269.75 354.448 272.038 354.448C273.945 354.448 275.632 354.756 277.098 355.372C278.565 355.959 279.797 356.795 280.794 357.88C281.821 358.965 282.598 360.227 283.126 361.664C283.654 363.072 283.918 364.612 283.918 366.284C283.918 366.753 283.889 367.223 283.83 367.692C283.801 368.132 283.728 368.513 283.61 368.836H265.614V363.996H279.87L276.746 366.284C277.04 365.023 277.025 363.908 276.702 362.94C276.38 361.943 275.808 361.165 274.986 360.608C274.194 360.021 273.212 359.728 272.038 359.728C270.894 359.728 269.912 360.007 269.09 360.564C268.269 361.121 267.653 361.943 267.242 363.028C266.832 364.113 266.67 365.433 266.758 366.988C266.641 368.337 266.802 369.525 267.242 370.552C267.682 371.579 268.357 372.385 269.266 372.972C270.176 373.529 271.276 373.808 272.566 373.808C273.74 373.808 274.737 373.573 275.558 373.104C276.409 372.635 277.069 371.989 277.538 371.168L282.818 373.676C282.349 374.849 281.601 375.876 280.574 376.756C279.577 377.636 278.389 378.325 277.01 378.824C275.632 379.293 274.121 379.528 272.478 379.528ZM299.729 379.528C297.353 379.528 295.182 378.985 293.217 377.9C291.281 376.815 289.726 375.333 288.553 373.456C287.409 371.549 286.837 369.393 286.837 366.988C286.837 364.553 287.409 362.397 288.553 360.52C289.726 358.643 291.281 357.161 293.217 356.076C295.182 354.991 297.353 354.448 299.729 354.448C302.105 354.448 304.261 354.991 306.197 356.076C308.133 357.161 309.673 358.643 310.817 360.52C311.99 362.397 312.577 364.553 312.577 366.988C312.577 369.393 311.99 371.549 310.817 373.456C309.673 375.333 308.133 376.815 306.197 377.9C304.261 378.985 302.105 379.528 299.729 379.528ZM299.729 373.588C300.931 373.588 301.973 373.309 302.853 372.752C303.762 372.195 304.466 371.417 304.965 370.42C305.493 369.423 305.757 368.279 305.757 366.988C305.757 365.697 305.493 364.568 304.965 363.6C304.466 362.603 303.762 361.825 302.853 361.268C301.973 360.681 300.931 360.388 299.729 360.388C298.526 360.388 297.47 360.681 296.561 361.268C295.651 361.825 294.933 362.603 294.405 363.6C293.906 364.568 293.657 365.697 293.657 366.988C293.657 368.279 293.906 369.423 294.405 370.42C294.933 371.417 295.651 372.195 296.561 372.752C297.47 373.309 298.526 373.588 299.729 373.588ZM316.465 387.8V354.976H322.625V359.552L322.053 358.232C322.845 357.029 323.916 356.105 325.265 355.46C326.644 354.785 328.213 354.448 329.973 354.448C332.261 354.448 334.329 355.005 336.177 356.12C338.025 357.235 339.492 358.745 340.577 360.652C341.662 362.529 342.205 364.641 342.205 366.988C342.205 369.305 341.662 371.417 340.577 373.324C339.521 375.231 338.069 376.741 336.221 377.856C334.373 378.971 332.276 379.528 329.929 379.528C328.286 379.528 326.761 379.235 325.353 378.648C323.974 378.032 322.86 377.137 322.009 375.964L323.065 374.6V387.8H316.465ZM329.137 373.588C330.369 373.588 331.454 373.309 332.393 372.752C333.332 372.195 334.065 371.417 334.593 370.42C335.121 369.423 335.385 368.279 335.385 366.988C335.385 365.697 335.121 364.568 334.593 363.6C334.065 362.603 333.332 361.825 332.393 361.268C331.454 360.681 330.369 360.388 329.137 360.388C327.964 360.388 326.908 360.667 325.969 361.224C325.06 361.781 324.341 362.559 323.813 363.556C323.314 364.553 323.065 365.697 323.065 366.988C323.065 368.279 323.314 369.423 323.813 370.42C324.341 371.417 325.06 372.195 325.969 372.752C326.908 373.309 327.964 373.588 329.137 373.588ZM346.07 379V345.692H352.67V379H346.07ZM369.072 379.528C366.52 379.528 364.305 378.971 362.428 377.856C360.551 376.712 359.099 375.187 358.072 373.28C357.045 371.373 356.532 369.261 356.532 366.944C356.532 364.539 357.06 362.397 358.116 360.52C359.201 358.643 360.653 357.161 362.472 356.076C364.291 354.991 366.344 354.448 368.632 354.448C370.539 354.448 372.225 354.756 373.692 355.372C375.159 355.959 376.391 356.795 377.388 357.88C378.415 358.965 379.192 360.227 379.72 361.664C380.248 363.072 380.512 364.612 380.512 366.284C380.512 366.753 380.483 367.223 380.424 367.692C380.395 368.132 380.321 368.513 380.204 368.836H362.208V363.996H376.464L373.34 366.284C373.633 365.023 373.619 363.908 373.296 362.94C372.973 361.943 372.401 361.165 371.58 360.608C370.788 360.021 369.805 359.728 368.632 359.728C367.488 359.728 366.505 360.007 365.684 360.564C364.863 361.121 364.247 361.943 363.836 363.028C363.425 364.113 363.264 365.433 363.352 366.988C363.235 368.337 363.396 369.525 363.836 370.552C364.276 371.579 364.951 372.385 365.86 372.972C366.769 373.529 367.869 373.808 369.16 373.808C370.333 373.808 371.331 373.573 372.152 373.104C373.003 372.635 373.663 371.989 374.132 371.168L379.412 373.676C378.943 374.849 378.195 375.876 377.168 376.756C376.171 377.636 374.983 378.325 373.604 378.824C372.225 379.293 370.715 379.528 369.072 379.528ZM121.722 434.264C118.818 434.264 116.56 433.487 114.946 431.932C113.362 430.348 112.57 428.148 112.57 425.332V415.696H108.522V409.976H108.742C109.974 409.976 110.913 409.668 111.558 409.052C112.233 408.436 112.57 407.512 112.57 406.28V404.52H119.17V409.976H124.802V415.696H119.17V424.892C119.17 425.713 119.317 426.403 119.61 426.96C119.904 427.488 120.358 427.884 120.974 428.148C121.59 428.412 122.353 428.544 123.262 428.544C123.468 428.544 123.702 428.529 123.966 428.5C124.23 428.471 124.509 428.441 124.802 428.412V434C124.362 434.059 123.864 434.117 123.306 434.176C122.749 434.235 122.221 434.264 121.722 434.264ZM140.594 434.528C138.218 434.528 136.047 433.985 134.082 432.9C132.146 431.815 130.591 430.333 129.418 428.456C128.274 426.549 127.702 424.393 127.702 421.988C127.702 419.553 128.274 417.397 129.418 415.52C130.591 413.643 132.146 412.161 134.082 411.076C136.047 409.991 138.218 409.448 140.594 409.448C142.97 409.448 145.126 409.991 147.062 411.076C148.998 412.161 150.538 413.643 151.682 415.52C152.855 417.397 153.442 419.553 153.442 421.988C153.442 424.393 152.855 426.549 151.682 428.456C150.538 430.333 148.998 431.815 147.062 432.9C145.126 433.985 142.97 434.528 140.594 434.528ZM140.594 428.588C141.797 428.588 142.838 428.309 143.718 427.752C144.627 427.195 145.331 426.417 145.83 425.42C146.358 424.423 146.622 423.279 146.622 421.988C146.622 420.697 146.358 419.568 145.83 418.6C145.331 417.603 144.627 416.825 143.718 416.268C142.838 415.681 141.797 415.388 140.594 415.388C139.391 415.388 138.335 415.681 137.426 416.268C136.517 416.825 135.798 417.603 135.27 418.6C134.771 419.568 134.522 420.697 134.522 421.988C134.522 423.279 134.771 424.423 135.27 425.42C135.798 426.417 136.517 427.195 137.426 427.752C138.335 428.309 139.391 428.588 140.594 428.588ZM169.122 443.68C167.274 443.68 165.558 443.372 163.974 442.756C162.39 442.14 161.026 441.275 159.882 440.16C158.767 439.075 157.961 437.784 157.462 436.288L163.578 434.132C163.901 435.247 164.561 436.127 165.558 436.772C166.555 437.417 167.743 437.74 169.122 437.74C170.207 437.74 171.146 437.535 171.938 437.124C172.73 436.743 173.331 436.171 173.742 435.408C174.182 434.645 174.402 433.751 174.402 432.724V427.224L175.678 428.808C174.857 430.157 173.801 431.169 172.51 431.844C171.219 432.489 169.709 432.812 167.978 432.812C165.749 432.812 163.754 432.313 161.994 431.316C160.234 430.289 158.855 428.896 157.858 427.136C156.861 425.347 156.362 423.323 156.362 421.064C156.362 418.805 156.861 416.811 157.858 415.08C158.855 413.32 160.219 411.941 161.95 410.944C163.681 409.947 165.646 409.448 167.846 409.448C169.577 409.448 171.087 409.8 172.378 410.504C173.669 411.179 174.769 412.22 175.678 413.628L174.842 415.212V409.976H181.002V432.724C181.002 434.836 180.489 436.713 179.462 438.356C178.435 440.028 177.027 441.333 175.238 442.272C173.478 443.211 171.439 443.68 169.122 443.68ZM168.902 426.828C170.017 426.828 170.985 426.593 171.806 426.124C172.627 425.655 173.258 424.995 173.698 424.144C174.167 423.293 174.402 422.296 174.402 421.152C174.402 420.008 174.167 419.011 173.698 418.16C173.229 417.28 172.583 416.605 171.762 416.136C170.941 415.637 169.987 415.388 168.902 415.388C167.787 415.388 166.79 415.637 165.91 416.136C165.059 416.605 164.385 417.28 163.886 418.16C163.417 419.011 163.182 420.008 163.182 421.152C163.182 422.267 163.417 423.249 163.886 424.1C164.385 424.951 165.059 425.625 165.91 426.124C166.79 426.593 167.787 426.828 168.902 426.828ZM197.433 434.528C194.881 434.528 192.667 433.971 190.789 432.856C188.912 431.712 187.46 430.187 186.433 428.28C185.407 426.373 184.893 424.261 184.893 421.944C184.893 419.539 185.421 417.397 186.477 415.52C187.563 413.643 189.015 412.161 190.833 411.076C192.652 409.991 194.705 409.448 196.993 409.448C198.9 409.448 200.587 409.756 202.053 410.372C203.52 410.959 204.752 411.795 205.749 412.88C206.776 413.965 207.553 415.227 208.081 416.664C208.609 418.072 208.873 419.612 208.873 421.284C208.873 421.753 208.844 422.223 208.785 422.692C208.756 423.132 208.683 423.513 208.565 423.836H190.569V418.996H204.825L201.701 421.284C201.995 420.023 201.98 418.908 201.657 417.94C201.335 416.943 200.763 416.165 199.941 415.608C199.149 415.021 198.167 414.728 196.993 414.728C195.849 414.728 194.867 415.007 194.045 415.564C193.224 416.121 192.608 416.943 192.197 418.028C191.787 419.113 191.625 420.433 191.713 421.988C191.596 423.337 191.757 424.525 192.197 425.552C192.637 426.579 193.312 427.385 194.221 427.972C195.131 428.529 196.231 428.808 197.521 428.808C198.695 428.808 199.692 428.573 200.513 428.104C201.364 427.635 202.024 426.989 202.493 426.168L207.773 428.676C207.304 429.849 206.556 430.876 205.529 431.756C204.532 432.636 203.344 433.325 201.965 433.824C200.587 434.293 199.076 434.528 197.433 434.528ZM224.332 434.264C221.428 434.264 219.169 433.487 217.556 431.932C215.972 430.348 215.18 428.148 215.18 425.332V415.696H211.132V409.976H211.352C212.584 409.976 213.523 409.668 214.168 409.052C214.843 408.436 215.18 407.512 215.18 406.28V404.52H221.78V409.976H227.412V415.696H221.78V424.892C221.78 425.713 221.927 426.403 222.22 426.96C222.513 427.488 222.968 427.884 223.584 428.148C224.2 428.412 224.963 428.544 225.872 428.544C226.077 428.544 226.312 428.529 226.576 428.5C226.84 428.471 227.119 428.441 227.412 428.412V434C226.972 434.059 226.473 434.117 225.916 434.176C225.359 434.235 224.831 434.264 224.332 434.264ZM231.279 434V400.692H237.879V414.728L237.087 413.672C237.645 412.235 238.539 411.179 239.771 410.504C241.033 409.8 242.499 409.448 244.171 409.448C245.99 409.448 247.574 409.829 248.923 410.592C250.302 411.355 251.373 412.425 252.135 413.804C252.898 415.153 253.279 416.737 253.279 418.556V434H246.679V419.964C246.679 419.025 246.489 418.219 246.107 417.544C245.755 416.869 245.242 416.341 244.567 415.96C243.922 415.579 243.159 415.388 242.279 415.388C241.429 415.388 240.666 415.579 239.991 415.96C239.317 416.341 238.789 416.869 238.407 417.544C238.055 418.219 237.879 419.025 237.879 419.964V434H231.279ZM269.191 434.528C266.639 434.528 264.425 433.971 262.547 432.856C260.67 431.712 259.218 430.187 258.191 428.28C257.165 426.373 256.651 424.261 256.651 421.944C256.651 419.539 257.179 417.397 258.235 415.52C259.321 413.643 260.773 412.161 262.591 411.076C264.41 409.991 266.463 409.448 268.751 409.448C270.658 409.448 272.345 409.756 273.811 410.372C275.278 410.959 276.51 411.795 277.507 412.88C278.534 413.965 279.311 415.227 279.839 416.664C280.367 418.072 280.631 419.612 280.631 421.284C280.631 421.753 280.602 422.223 280.543 422.692C280.514 423.132 280.441 423.513 280.323 423.836H262.327V418.996H276.583L273.459 421.284C273.753 420.023 273.738 418.908 273.415 417.94C273.093 416.943 272.521 416.165 271.699 415.608C270.907 415.021 269.925 414.728 268.751 414.728C267.607 414.728 266.625 415.007 265.803 415.564C264.982 416.121 264.366 416.943 263.955 418.028C263.545 419.113 263.383 420.433 263.471 421.988C263.354 423.337 263.515 424.525 263.955 425.552C264.395 426.579 265.07 427.385 265.979 427.972C266.889 428.529 267.989 428.808 269.279 428.808C270.453 428.808 271.45 428.573 272.271 428.104C273.122 427.635 273.782 426.989 274.251 426.168L279.531 428.676C279.062 429.849 278.314 430.876 277.287 431.756C276.29 432.636 275.102 433.325 273.723 433.824C272.345 434.293 270.834 434.528 269.191 434.528ZM284.518 434V409.976H290.678V415.74L290.238 414.904C290.766 412.88 291.631 411.516 292.834 410.812C294.066 410.079 295.518 409.712 297.19 409.712H298.598V415.432H296.53C294.916 415.432 293.611 415.931 292.614 416.928C291.616 417.896 291.118 419.275 291.118 421.064V434H284.518ZM302.985 434V427.4H309.585V434H302.985Z" fill="white"/>
</svg>
