<svg width="1738" height="309" viewBox="0 0 1738 309" fill="none" xmlns="http://www.w3.org/2000/svg">
<circle cx="49" cy="156" r="27" fill="#00E331"/>
<circle cx="265" cy="156" r="27" fill="#FF2600"/>
<circle cx="157" cy="48" r="27" fill="#006EFF"/>
<rect x="103" y="118" width="108" height="33" rx="6" fill="#0D274D"/>
<path d="M119.437 24C120.238 24 120.718 24.8981 120.3 25.5812C116.304 32.1091 114 39.7854 114 48C114 56.2146 116.304 63.8909 120.3 70.4188C120.718 71.1019 120.238 72 119.437 72H97C83.7452 72 73 82.7452 73 96V118.436C73 119.237 72.1019 119.718 71.4188 119.299C64.8909 115.303 57.2144 113 49 113C40.7856 113 33.1091 115.303 26.5812 119.299C25.8981 119.718 25 119.237 25 118.436V84C25 50.8629 51.8629 24 85 24H119.437Z" fill="#0D274D"/>
<path d="M229 24C262.137 24 289 50.8629 289 84V118.436C289 119.237 288.102 119.718 287.419 119.299C280.891 115.303 273.214 113 265 113C256.786 113 249.109 115.303 242.581 119.299C241.898 119.718 241 119.237 241 118.436V96C241 82.7452 230.255 72 217 72H194.563C193.762 72 193.282 71.1019 193.7 70.4188C197.696 63.8909 200 56.2146 200 48C200 39.7854 197.696 32.1091 193.7 25.5812C193.282 24.8981 193.762 24 194.563 24H229Z" fill="#0D274D"/>
<path d="M205 161C208.314 161 211 163.686 211 167V188C211 191.314 208.314 194 205 194H189C184.582 194 181 197.582 181 202V239.966C181 239.985 180.985 240 180.966 240V240C180.949 240 180.934 240.014 180.933 240.032C179.622 266.575 157.817 287.726 131.012 287.992C131.009 287.992 131.006 287.994 131.003 287.996V287.996C131.001 287.999 130.998 288 130.995 288H85C51.8629 288 25 261.137 25 228V193.563C25 192.762 25.8981 192.282 26.5812 192.7C33.1091 196.696 40.7854 199 49 199C57.2146 199 64.8909 196.696 71.4188 192.7C72.1019 192.282 73 192.762 73 193.563V216C73 229.255 83.7452 240 97 240H107.989C107.995 240 108 239.995 108 239.989V239.989C108 239.983 108.005 239.978 108.011 239.978C108.339 239.991 108.669 240 109 240C122.255 240 133 229.255 133 216C133 215.669 132.991 215.339 132.978 215.011C132.978 215.005 132.983 215 132.989 215V215C132.995 215 133 214.995 133 214.989V202C133 197.582 129.418 194 125 194H109C105.686 194 103 191.314 103 188V167C103 163.686 105.686 161 109 161H205Z" fill="#0D274D"/>
<path d="M289 228C289 261.137 262.137 288 229 288H187.553C186.682 288 186.221 286.957 186.793 286.299C195.129 276.69 201.047 264.926 203.597 251.953C204.892 245.365 210.286 240 217 240V240C230.255 240 241 229.255 241 216V193.563C241 192.762 241.898 192.282 242.581 192.7C249.109 196.696 256.785 199 265 199C273.215 199 280.891 196.696 287.419 192.7C288.102 192.282 289 192.762 289 193.563V228Z" fill="#0D274D"/>
<path d="M437.97 266.458V86.3927H382V46.5423H538.954V86.3927H483.872V266.458H437.97Z" fill="#0D274D"/>
<path d="M617.859 270C601.868 270 587.258 266.359 574.031 259.078C561 251.797 550.537 241.859 542.64 229.264C534.94 216.472 531.09 202.008 531.09 185.871C531.09 169.537 534.94 155.073 542.64 142.479C550.537 129.884 561 119.946 574.031 112.664C587.258 105.383 601.868 101.743 617.859 101.743C633.851 101.743 648.362 105.383 661.392 112.664C674.422 119.946 684.787 129.884 692.487 142.479C700.384 155.073 704.332 169.537 704.332 185.871C704.332 202.008 700.384 216.472 692.487 229.264C684.787 241.859 674.422 251.797 661.392 259.078C648.362 266.359 633.851 270 617.859 270ZM617.859 230.15C625.954 230.15 632.963 228.28 638.885 224.541C645.006 220.802 649.744 215.587 653.1 208.896C656.654 202.205 658.431 194.53 658.431 185.871C658.431 177.212 656.654 169.636 653.1 163.142C649.744 156.451 645.006 151.236 638.885 147.497C632.963 143.561 625.954 141.593 617.859 141.593C609.765 141.593 602.658 143.561 596.537 147.497C590.417 151.236 585.58 156.451 582.026 163.142C578.67 169.636 576.992 177.212 576.992 185.871C576.992 194.53 578.67 202.205 582.026 208.896C585.58 215.587 590.417 220.802 596.537 224.541C602.658 228.28 609.765 230.15 617.859 230.15Z" fill="#0D274D"/>
<path d="M839.777 270C823.983 270 809.275 267.147 795.652 261.44C782.03 255.733 770.085 247.762 759.819 237.529C749.553 227.296 741.557 215.292 735.832 201.516C730.106 187.741 727.244 172.686 727.244 156.352C727.244 140.019 730.008 124.964 735.536 111.189C741.064 97.2163 748.862 85.212 758.931 75.1756C769 64.9423 780.746 57.0706 794.171 51.5605C807.794 45.8535 822.601 43 838.592 43C854.584 43 868.897 45.6567 881.533 50.9701C894.365 56.2835 905.224 63.368 914.108 72.2237C922.992 81.0793 929.31 90.9189 933.061 101.743L892.49 121.225C888.739 110.598 882.125 101.841 872.649 94.9532C863.369 87.8687 852.017 84.3264 838.592 84.3264C825.562 84.3264 814.112 87.3767 804.24 93.4772C794.369 99.5778 786.669 108.04 781.141 118.863C775.811 129.49 773.146 141.987 773.146 156.352C773.146 170.718 776.008 183.313 781.734 194.137C787.459 204.96 795.257 213.422 805.129 219.523C815.197 225.623 826.747 228.674 839.777 228.674C849.846 228.674 859.224 226.804 867.91 223.065C876.795 219.129 883.902 213.521 889.232 206.239C894.76 198.958 897.524 190.201 897.524 179.967V161.666L918.55 179.377H838.592V141.003H943.426V164.322C943.426 182.231 940.465 197.876 934.542 211.257C928.619 224.443 920.623 235.463 910.555 244.319C900.683 252.977 889.529 259.472 877.091 263.801C864.85 267.934 852.412 270 839.777 270Z" fill="#0D274D"/>
<path d="M1018.56 270C1006.91 270 996.843 268.13 988.354 264.391C979.864 260.652 973.349 255.339 968.808 248.451C964.268 241.367 961.997 233.003 961.997 223.36C961.997 214.308 964.07 206.338 968.216 199.45C972.362 192.365 978.68 186.462 987.169 181.739C995.856 177.016 1006.62 173.67 1019.45 171.702L1068.9 163.732V196.203L1027.44 203.583C1021.13 204.763 1016.29 206.83 1012.93 209.782C1009.58 212.537 1007.9 216.571 1007.9 221.884C1007.9 226.804 1009.77 230.642 1013.53 233.397C1017.28 236.152 1021.92 237.529 1027.44 237.529C1034.75 237.529 1041.17 235.955 1046.69 232.806C1052.22 229.658 1056.47 225.427 1059.43 220.113C1062.59 214.603 1064.17 208.601 1064.17 202.107V160.19C1064.17 154.089 1061.7 148.973 1056.76 144.84C1052.02 140.707 1045.51 138.641 1037.22 138.641C1029.32 138.641 1022.31 140.806 1016.19 145.135C1010.27 149.465 1005.92 155.172 1003.16 162.256L967.624 145.43C970.783 136.378 975.817 128.605 982.727 122.111C989.637 115.616 997.929 110.598 1007.6 107.056C1017.28 103.514 1027.84 101.743 1039.29 101.743C1052.91 101.743 1064.96 104.202 1075.42 109.122C1085.88 114.042 1093.98 120.93 1099.7 129.785C1105.63 138.444 1108.59 148.579 1108.59 160.19V266.458H1067.13V240.481L1077.2 238.71C1072.46 245.795 1067.23 251.698 1061.5 256.421C1055.77 260.948 1049.36 264.293 1042.25 266.458C1035.14 268.819 1027.25 270 1018.56 270Z" fill="#0D274D"/>
<path d="M1216.16 268.229C1196.61 268.229 1181.41 263.014 1170.55 252.584C1159.89 241.957 1154.56 227.198 1154.56 208.306V143.659H1127.32V105.285H1128.8C1137.09 105.285 1143.41 103.218 1147.75 99.0858C1152.29 94.9532 1154.56 88.7542 1154.56 80.4889V68.6814H1198.98V105.285H1236.89V143.659H1198.98V205.354C1198.98 210.864 1199.97 215.489 1201.94 219.228C1203.92 222.77 1206.98 225.427 1211.12 227.198C1215.27 228.969 1220.4 229.854 1226.52 229.854C1227.9 229.854 1229.48 229.756 1231.26 229.559C1233.04 229.362 1234.91 229.166 1236.89 228.969V266.458C1233.93 266.851 1230.57 267.245 1226.82 267.638C1223.07 268.032 1219.51 268.229 1216.16 268.229Z" fill="#0D274D"/>
<path d="M1262.92 266.458V43H1307.34V137.165L1302.01 130.081C1305.76 120.438 1311.78 113.353 1320.07 108.827C1328.56 104.104 1338.43 101.743 1349.69 101.743C1361.93 101.743 1372.59 104.301 1381.67 109.417C1390.95 114.534 1398.15 121.717 1403.29 130.966C1408.42 140.019 1410.99 150.645 1410.99 162.847V266.458H1366.57V172.293C1366.57 165.995 1365.28 160.583 1362.72 156.057C1360.35 151.531 1356.89 147.989 1352.35 145.43C1348.01 142.872 1342.88 141.593 1336.95 141.593C1331.23 141.593 1326.09 142.872 1321.55 145.43C1317.01 147.989 1313.46 151.531 1310.89 156.057C1308.52 160.583 1307.34 165.995 1307.34 172.293V266.458H1262.92Z" fill="#0D274D"/>
<path d="M1518.08 270C1500.91 270 1486 266.261 1473.36 258.783C1460.73 251.108 1450.96 240.875 1444.05 228.083C1437.14 215.292 1433.68 201.123 1433.68 185.576C1433.68 169.439 1437.23 155.073 1444.34 142.479C1451.65 129.884 1461.42 119.946 1473.66 112.664C1485.9 105.383 1499.72 101.743 1515.12 101.743C1527.95 101.743 1539.3 103.809 1549.18 107.941C1559.05 111.877 1567.34 117.486 1574.05 124.767C1580.96 132.049 1586.19 140.511 1589.75 150.153C1593.3 159.599 1595.08 169.931 1595.08 181.148C1595.08 184.297 1594.88 187.446 1594.49 190.594C1594.29 193.546 1593.79 196.104 1593 198.269H1471.88V165.798H1567.83L1546.81 181.148C1548.78 172.686 1548.68 165.208 1546.51 158.714C1544.34 152.023 1540.49 146.808 1534.96 143.069C1529.63 139.133 1523.02 137.165 1515.12 137.165C1507.42 137.165 1500.81 139.035 1495.28 142.774C1489.75 146.513 1485.6 152.023 1482.84 159.304C1480.08 166.586 1478.99 175.441 1479.58 185.871C1478.79 194.924 1479.88 202.894 1482.84 209.782C1485.8 216.669 1490.34 222.081 1496.46 226.017C1502.58 229.756 1509.99 231.625 1518.67 231.625C1526.57 231.625 1533.28 230.051 1538.81 226.902C1544.54 223.754 1548.98 219.424 1552.14 213.914L1587.67 230.74C1584.52 238.612 1579.48 245.499 1572.57 251.403C1565.86 257.307 1557.86 261.932 1548.58 265.277C1539.3 268.426 1529.14 270 1518.08 270Z" fill="#0D274D"/>
<path d="M1621.24 266.458V105.285H1662.69V143.954L1659.73 138.346C1663.29 124.767 1669.11 115.616 1677.21 110.893C1685.5 105.974 1695.27 103.514 1706.52 103.514H1716V141.888H1702.08C1691.22 141.888 1682.44 145.234 1675.72 151.925C1669.01 158.419 1665.66 167.668 1665.66 179.672V266.458H1621.24Z" fill="#0D274D"/>
</svg>
