<svg width="1512" height="374" viewBox="0 0 1512 374" fill="none" xmlns="http://www.w3.org/2000/svg">
<g clip-path="url(#clip0_673_1157)">
<path d="M81.8639 187.5L0 217V-6L1511.5 -4V31L918 40.5C853.674 40.1373 820.928 45.394 764.896 65L705.529 94.5L651.161 116.5C651.161 116.5 626.818 124.345 610.542 127.5C597.791 129.971 577.421 132 577.421 132C544.234 134.839 525.763 134.837 493.058 132L401.195 124C368.883 122.248 350.389 122.309 316.832 124C295.71 125.816 282.997 127.598 259.34 132C225.031 138.571 204.043 144.535 165.602 156.5L81.8639 187.5Z" fill="#40A2FF"/>
<path d="M81.8639 187.5L0 217V-6L1511.5 -4V31L918 40.5C853.674 40.1373 820.928 45.394 764.896 65L705.529 94.5L651.161 116.5C651.161 116.5 626.818 124.345 610.542 127.5C597.791 129.971 577.421 132 577.421 132C544.234 134.839 525.763 134.837 493.058 132L401.195 124C368.883 122.248 350.389 122.309 316.832 124C295.71 125.816 282.997 127.598 259.34 132C225.031 138.571 204.043 144.535 165.602 156.5L81.8639 187.5Z" fill="url(#paint0_linear_673_1157)"/>
<path d="M929.195 226.232C843.361 199.538 905.956 142.811 683.021 84.1038C654.29 -23.1229 717.923 -133.339 825.15 -162.07C932.376 -190.801 1042.59 -127.168 1071.32 -19.9414C1100.05 87.2853 1015.03 252.926 929.195 226.232Z" fill="#40A2FF"/>
<path d="M929.195 226.232C843.361 199.538 905.956 142.811 683.021 84.1038C654.29 -23.1229 717.923 -133.339 825.15 -162.07C932.376 -190.801 1042.59 -127.168 1071.32 -19.9414C1100.05 87.2853 1015.03 252.926 929.195 226.232Z" fill="url(#paint1_linear_673_1157)"/>
<path d="M1232.07 224.824C1273.89 145.255 1189.52 149.404 1305.64 -49.747C1250.14 -145.884 1127.21 -178.823 1031.07 -123.318C934.934 -67.8135 901.995 55.1162 957.5 151.253C1013 247.39 1190.25 304.393 1232.07 224.824Z" fill="url(#paint2_linear_673_1157)"/>
<path d="M1158.67 53.883L1125.12 -49.6787L1114.92 -82.4922L1749.39 -439.697C1749.39 -439.697 2038.89 -9.15201 1988.33 -3.9653C1937.77 1.22145 1909.69 6.10586 1860.48 22.0445C1804.34 45.1123 1776.98 59.293 1740.18 88.0818L1647.95 157.269L1561.07 225.638C1528.11 249.065 1508.37 260.877 1468.24 276.958C1445.06 287.343 1431.29 289.742 1405.9 290.185C1384.6 290.209 1371.64 286.444 1347.79 277.068C1328.23 267.775 1316.94 260.468 1296.39 245.278C1265.88 222.778 1249.57 205.247 1221.31 169.107C1191.85 128.262 1178.26 102.921 1158.67 53.883Z" fill="#40A2FF"/>
<path d="M1158.67 53.883L1125.12 -49.6787L1114.92 -82.4922L1749.39 -439.697C1749.39 -439.697 2038.89 -9.15201 1988.33 -3.9653C1937.77 1.22145 1909.69 6.10586 1860.48 22.0445C1804.34 45.1123 1776.98 59.293 1740.18 88.0818L1647.95 157.269L1561.07 225.638C1528.11 249.065 1508.37 260.877 1468.24 276.958C1445.06 287.343 1431.29 289.742 1405.9 290.185C1384.6 290.209 1371.64 286.444 1347.79 277.068C1328.23 267.775 1316.94 260.468 1296.39 245.278C1265.88 222.778 1249.57 205.247 1221.31 169.107C1191.85 128.262 1178.26 102.921 1158.67 53.883Z" fill="url(#paint3_linear_673_1157)"/>
<path d="M818.071 113.642C859.889 34.073 775.516 38.222 891.642 -160.929C836.138 -257.066 713.208 -290.005 617.071 -234.5C520.934 -178.995 487.995 -56.0657 543.5 40.0711C599.005 136.208 776.253 193.211 818.071 113.642Z" fill="#40A2FF"/>
<path d="M818.071 113.642C859.889 34.073 775.516 38.222 891.642 -160.929C836.138 -257.066 713.208 -290.005 617.071 -234.5C520.934 -178.995 487.995 -56.0657 543.5 40.0711C599.005 136.208 776.253 193.211 818.071 113.642Z" fill="url(#paint4_linear_673_1157)"/>
<circle cx="1458.5" cy="48.5" r="11.5" fill="#FD5959" fill-opacity="0.6"/>
<circle cx="138.5" cy="48.5" r="11.5" fill="#FFB760" fill-opacity="0.6"/>
<circle cx="1425.5" cy="205.5" r="11.5" fill="#66E086" fill-opacity="0.7"/>
<rect x="1245.9" y="32" width="77.0646" height="74.9367" rx="10" transform="rotate(60 1245.9 32)" fill="white" fill-opacity="0.27"/>
<rect x="1245.9" width="77.0646" height="74.9367" rx="10" transform="rotate(60 1245.9 0)" fill="white" fill-opacity="0.27"/>
</g>
<defs>
<linearGradient id="paint0_linear_673_1157" x1="76" y1="-92" x2="41.9608" y2="580.035" gradientUnits="userSpaceOnUse">
<stop stop-color="#40A2FF"/>
<stop offset="1" stop-color="#401CC5"/>
</linearGradient>
<linearGradient id="paint1_linear_673_1157" x1="969.5" y1="101.5" x2="769" y2="464" gradientUnits="userSpaceOnUse">
<stop stop-color="#40A2FF"/>
<stop offset="1" stop-color="#401CC5"/>
</linearGradient>
<linearGradient id="paint2_linear_673_1157" x1="1225" y1="91.5" x2="1084.5" y2="571" gradientUnits="userSpaceOnUse">
<stop stop-color="#40A2FF"/>
<stop offset="1" stop-color="#401CC5"/>
</linearGradient>
<linearGradient id="paint3_linear_673_1157" x1="1341" y1="-14" x2="1503.81" y2="553.099" gradientUnits="userSpaceOnUse">
<stop stop-color="#40A2FF"/>
<stop offset="1" stop-color="#401CC5"/>
</linearGradient>
<linearGradient id="paint4_linear_673_1157" x1="701.372" y1="53.9432" x2="542.5" y2="326.5" gradientUnits="userSpaceOnUse">
<stop stop-color="#40A2FF"/>
<stop offset="1" stop-color="#401CC5"/>
</linearGradient>
<clipPath id="clip0_673_1157">
<rect width="1512" height="374" fill="white"/>
</clipPath>
</defs>
</svg>
